<?xml version="1.0" encoding="UTF-8"?><svg id="Layer_2" xmlns="http://www.w3.org/2000/svg" viewBox="0 0 945.2 196.42"><defs><style>.cls-1{fill:#fff;}</style></defs><g id="Layer_2-2"><path class="cls-1" d="M12.1,0c3.07,0,5.76,1.15,8.06,3.46,2.3,2.3,3.46,4.99,3.46,8.06v.58c0,3.07-1.15,5.76-3.46,8.06-2.3,2.3-5,3.46-8.06,3.46h-.58c-3.07,0-5.76-1.15-8.06-3.46C1.15,17.86,0,15.17,0,12.1v-.58c0-3.07,1.15-5.76,3.46-8.06C5.76,1.15,8.45,0,11.52,0h.58ZM12.1,28.8c3.07,0,5.76,1.15,8.06,3.46,2.3,2.3,3.46,5,3.46,8.06v.58c0,3.07-1.15,5.76-3.46,8.06-2.3,2.3-5,3.46-8.06,3.46h-.58c-3.07,0-5.76-1.15-8.06-3.46-2.3-2.3-3.46-4.99-3.46-8.06v-.58c0-3.07,1.15-5.76,3.46-8.06,2.3-2.3,4.99-3.46,8.06-3.46h.58ZM12.1,57.6c3.07,0,5.76,1.15,8.06,3.46,2.3,2.3,3.46,5,3.46,8.06v.58c0,3.07-1.15,5.76-3.46,8.06-2.3,2.3-5,3.46-8.06,3.46h-.58c-3.07,0-5.76-1.15-8.06-3.46-2.3-2.3-3.46-4.99-3.46-8.06v-.58c0-3.07,1.15-5.76,3.46-8.06,2.3-2.3,4.99-3.46,8.06-3.46h.58ZM12.1,86.4c3.07,0,5.76,1.15,8.06,3.46,2.3,2.3,3.46,4.99,3.46,8.06v.58c0,3.07-1.15,5.76-3.46,8.06-2.3,2.3-5,3.46-8.06,3.46h-.58c-3.07,0-5.76-1.15-8.06-3.46-2.3-2.3-3.46-4.99-3.46-8.06v-.58c0-3.07,1.15-5.76,3.46-8.06,2.3-2.3,4.99-3.46,8.06-3.46h.58ZM12.1,115.2c3.07,0,5.76,1.15,8.06,3.46,2.3,2.3,3.46,5,3.46,8.06v.58c0,3.07-1.15,5.76-3.46,8.06-2.3,2.3-5,3.46-8.06,3.46h-.58c-3.07,0-5.76-1.15-8.06-3.46-2.3-2.3-3.46-4.99-3.46-8.06v-.58c0-3.07,1.15-5.76,3.46-8.06,2.3-2.3,4.99-3.46,8.06-3.46h.58ZM12.1,144c3.07,0,5.76,1.15,8.06,3.46,2.3,2.3,3.46,4.99,3.46,8.06v.58c0,3.07-1.15,5.76-3.46,8.06-2.3,2.3-5,3.46-8.06,3.46h-.58c-3.07,0-5.76-1.15-8.06-3.46-2.3-2.3-3.46-4.99-3.46-8.06v-.58c0-3.07,1.15-5.76,3.46-8.06,2.3-2.3,4.99-3.46,8.06-3.46h.58ZM12.1,172.8c3.07,0,5.76,1.15,8.06,3.46,2.3,2.3,3.46,5,3.46,8.06v.58c0,3.07-1.15,5.76-3.46,8.06-2.3,2.3-5,3.46-8.06,3.46h-.58c-3.07,0-5.76-1.15-8.06-3.46-2.3-2.3-3.46-4.99-3.46-8.06v-.58c0-3.07,1.15-5.76,3.46-8.06,2.3-2.3,4.99-3.46,8.06-3.46h.58ZM40.9,0c3.07,0,5.76,1.15,8.06,3.46,2.3,2.3,3.46,4.99,3.46,8.06v.58c0,3.07-1.15,5.76-3.46,8.06-2.3,2.3-4.99,3.46-8.06,3.46h-.58c-3.07,0-5.76-1.15-8.06-3.46-2.3-2.3-3.46-4.99-3.46-8.06v-.58c0-3.07,1.15-5.76,3.46-8.06,2.3-2.3,4.99-3.46,8.06-3.46h.58ZM40.9,172.8c3.07,0,5.76,1.15,8.06,3.46,2.3,2.3,3.46,5,3.46,8.06v.58c0,3.07-1.15,5.76-3.46,8.06-2.3,2.3-4.99,3.46-8.06,3.46h-.58c-3.07,0-5.76-1.15-8.06-3.46-2.3-2.3-3.46-4.99-3.46-8.06v-.58c0-3.07,1.15-5.76,3.46-8.06,2.3-2.3,4.99-3.46,8.06-3.46h.58ZM69.7,0c3.07,0,5.76,1.15,8.06,3.46,2.3,2.3,3.46,4.99,3.46,8.06v.58c0,3.07-1.15,5.76-3.46,8.06-2.3,2.3-5,3.46-8.06,3.46h-.58c-3.07,0-5.76-1.15-8.06-3.46-2.3-2.3-3.46-4.99-3.46-8.06v-.58c0-3.07,1.15-5.76,3.46-8.06,2.3-2.3,4.99-3.46,8.06-3.46h.58ZM69.7,172.8c3.07,0,5.76,1.15,8.06,3.46,2.3,2.3,3.46,5,3.46,8.06v.58c0,3.07-1.15,5.76-3.46,8.06-2.3,2.3-5,3.46-8.06,3.46h-.58c-3.07,0-5.76-1.15-8.06-3.46-2.3-2.3-3.46-4.99-3.46-8.06v-.58c0-3.07,1.15-5.76,3.46-8.06,2.3-2.3,4.99-3.46,8.06-3.46h.58Z"/><path class="cls-1" d="M156.09,0c3.07,0,5.76,1.15,8.06,3.46,2.3,2.3,3.46,4.99,3.46,8.06v.58c0,3.07-1.15,5.76-3.46,8.06-2.3,2.3-5,3.46-8.06,3.46h-.58c-3.07,0-5.76-1.15-8.06-3.46-2.3-2.3-3.46-4.99-3.46-8.06v-.58c0-3.07,1.15-5.76,3.46-8.06,2.3-2.3,4.99-3.46,8.06-3.46h.58ZM156.09,172.8c3.07,0,5.76,1.15,8.06,3.46,2.3,2.3,3.46,5,3.46,8.06v.58c0,3.07-1.15,5.76-3.46,8.06s-5,3.46-8.06,3.46h-.58c-3.07,0-5.76-1.15-8.06-3.46s-3.46-4.99-3.46-8.06v-.58c0-3.07,1.15-5.76,3.46-8.06,2.3-2.3,4.99-3.46,8.06-3.46h.58ZM184.89,0c3.07,0,5.76,1.15,8.06,3.46,2.3,2.3,3.46,4.99,3.46,8.06v.58c0,3.07-1.15,5.76-3.46,8.06-2.3,2.3-5,3.46-8.06,3.46h-.58c-3.07,0-5.76-1.15-8.06-3.46-2.3-2.3-3.46-4.99-3.46-8.06v-.58c0-3.07,1.15-5.76,3.46-8.06,2.3-2.3,4.99-3.46,8.06-3.46h.58ZM184.89,28.8c3.07,0,5.76,1.15,8.06,3.46,2.3,2.3,3.46,5,3.46,8.06v.58c0,3.07-1.15,5.76-3.46,8.06-2.3,2.3-5,3.46-8.06,3.46h-.58c-3.07,0-5.76-1.15-8.06-3.46-2.3-2.3-3.46-4.99-3.46-8.06v-.58c0-3.07,1.15-5.76,3.46-8.06,2.3-2.3,4.99-3.46,8.06-3.46h.58ZM184.89,57.6c3.07,0,5.76,1.15,8.06,3.46,2.3,2.3,3.46,5,3.46,8.06v.58c0,3.07-1.15,5.76-3.46,8.06-2.3,2.3-5,3.46-8.06,3.46h-.58c-3.07,0-5.76-1.15-8.06-3.46-2.3-2.3-3.46-4.99-3.46-8.06v-.58c0-3.07,1.15-5.76,3.46-8.06,2.3-2.3,4.99-3.46,8.06-3.46h.58ZM184.89,86.4c3.07,0,5.76,1.15,8.06,3.46,2.3,2.3,3.46,4.99,3.46,8.06v.58c0,3.07-1.15,5.76-3.46,8.06-2.3,2.3-5,3.46-8.06,3.46h-.58c-3.07,0-5.76-1.15-8.06-3.46-2.3-2.3-3.46-4.99-3.46-8.06v-.58c0-3.07,1.15-5.76,3.46-8.06,2.3-2.3,4.99-3.46,8.06-3.46h.58ZM184.89,115.2c3.07,0,5.76,1.15,8.06,3.46,2.3,2.3,3.46,5,3.46,8.06v.58c0,3.07-1.15,5.76-3.46,8.06-2.3,2.3-5,3.46-8.06,3.46h-.58c-3.07,0-5.76-1.15-8.06-3.46-2.3-2.3-3.46-4.99-3.46-8.06v-.58c0-3.07,1.15-5.76,3.46-8.06,2.3-2.3,4.99-3.46,8.06-3.46h.58ZM184.89,144c3.07,0,5.76,1.15,8.06,3.46,2.3,2.3,3.46,4.99,3.46,8.06v.58c0,3.07-1.15,5.76-3.46,8.06-2.3,2.3-5,3.46-8.06,3.46h-.58c-3.07,0-5.76-1.15-8.06-3.46-2.3-2.3-3.46-4.99-3.46-8.06v-.58c0-3.07,1.15-5.76,3.46-8.06,2.3-2.3,4.99-3.46,8.06-3.46h.58ZM184.89,172.8c3.07,0,5.76,1.15,8.06,3.46,2.3,2.3,3.46,5,3.46,8.06v.58c0,3.07-1.15,5.76-3.46,8.06-2.3,2.3-5,3.46-8.06,3.46h-.58c-3.07,0-5.76-1.15-8.06-3.46-2.3-2.3-3.46-4.99-3.46-8.06v-.58c0-3.07,1.15-5.76,3.46-8.06,2.3-2.3,4.99-3.46,8.06-3.46h.58ZM213.69,0c3.07,0,5.76,1.15,8.06,3.46,2.3,2.3,3.46,4.99,3.46,8.06v.58c0,3.07-1.15,5.76-3.46,8.06-2.3,2.3-4.99,3.46-8.06,3.46h-.58c-3.07,0-5.76-1.15-8.06-3.46-2.3-2.3-3.46-4.99-3.46-8.06v-.58c0-3.07,1.15-5.76,3.46-8.06,2.3-2.3,4.99-3.46,8.06-3.46h.58ZM213.69,86.4c3.07,0,5.76,1.15,8.06,3.46,2.3,2.3,3.46,4.99,3.46,8.06v.58c0,3.07-1.15,5.76-3.46,8.06-2.3,2.3-4.99,3.46-8.06,3.46h-.58c-3.07,0-5.76-1.15-8.06-3.46-2.3-2.3-3.46-4.99-3.46-8.06v-.58c0-3.07,1.15-5.76,3.46-8.06,2.3-2.3,4.99-3.46,8.06-3.46h.58ZM213.69,172.8c3.07,0,5.76,1.15,8.06,3.46,2.3,2.3,3.46,5,3.46,8.06v.58c0,3.07-1.15,5.76-3.46,8.06-2.3,2.3-4.99,3.46-8.06,3.46h-.58c-3.07,0-5.76-1.15-8.06-3.46-2.3-2.3-3.46-4.99-3.46-8.06v-.58c0-3.07,1.15-5.76,3.46-8.06,2.3-2.3,4.99-3.46,8.06-3.46h.58ZM242.49,0c3.07,0,5.76,1.15,8.06,3.46,2.3,2.3,3.46,4.99,3.46,8.06v.58c0,3.07-1.15,5.76-3.46,8.06-2.3,2.3-5,3.46-8.06,3.46h-.58c-3.07,0-5.76-1.15-8.06-3.46-2.3-2.3-3.46-4.99-3.46-8.06v-.58c0-3.07,1.15-5.76,3.46-8.06,2.3-2.3,4.99-3.46,8.06-3.46h.58ZM242.49,86.4c3.07,0,5.76,1.15,8.06,3.46,2.3,2.3,3.46,4.99,3.46,8.06v.58c0,3.07-1.15,5.76-3.46,8.06-2.3,2.3-5,3.46-8.06,3.46h-.58c-3.07,0-5.76-1.15-8.06-3.46-2.3-2.3-3.46-4.99-3.46-8.06v-.58c0-3.07,1.15-5.76,3.46-8.06,2.3-2.3,4.99-3.46,8.06-3.46h.58ZM242.49,172.8c3.07,0,5.76,1.15,8.06,3.46,2.3,2.3,3.46,5,3.46,8.06v.58c0,3.07-1.15,5.76-3.46,8.06-2.3,2.3-5,3.46-8.06,3.46h-.58c-3.07,0-5.76-1.15-8.06-3.46-2.3-2.3-3.46-4.99-3.46-8.06v-.58c0-3.07,1.15-5.76,3.46-8.06,2.3-2.3,4.99-3.46,8.06-3.46h.58ZM271.29,28.8c3.07,0,5.76,1.15,8.06,3.46,2.3,2.3,3.46,5,3.46,8.06v.58c0,3.07-1.15,5.76-3.46,8.06-2.3,2.3-5,3.46-8.06,3.46h-.58c-3.07,0-5.76-1.15-8.06-3.46-2.3-2.3-3.46-4.99-3.46-8.06v-.58c0-3.07,1.15-5.76,3.46-8.06,2.3-2.3,4.99-3.46,8.06-3.46h.58ZM271.29,57.6c3.07,0,5.76,1.15,8.06,3.46,2.3,2.3,3.46,5,3.46,8.06v.58c0,3.07-1.15,5.76-3.46,8.06-2.3,2.3-5,3.46-8.06,3.46h-.58c-3.07,0-5.76-1.15-8.06-3.46-2.3-2.3-3.46-4.99-3.46-8.06v-.58c0-3.07,1.15-5.76,3.46-8.06,2.3-2.3,4.99-3.46,8.06-3.46h.58ZM271.29,115.2c3.07,0,5.76,1.15,8.06,3.46,2.3,2.3,3.46,5,3.46,8.06v.58c0,3.07-1.15,5.76-3.46,8.06-2.3,2.3-5,3.46-8.06,3.46h-.58c-3.07,0-5.76-1.15-8.06-3.46-2.3-2.3-3.46-4.99-3.46-8.06v-.58c0-3.07,1.15-5.76,3.46-8.06,2.3-2.3,4.99-3.46,8.06-3.46h.58ZM271.29,144c3.07,0,5.76,1.15,8.06,3.46,2.3,2.3,3.46,4.99,3.46,8.06v.58c0,3.07-1.15,5.76-3.46,8.06-2.3,2.3-5,3.46-8.06,3.46h-.58c-3.07,0-5.76-1.15-8.06-3.46-2.3-2.3-3.46-4.99-3.46-8.06v-.58c0-3.07,1.15-5.76,3.46-8.06,2.3-2.3,4.99-3.46,8.06-3.46h.58Z"/><path class="cls-1" d="M328.89,86.4c3.07,0,5.76,1.15,8.06,3.46,2.3,2.3,3.46,4.99,3.46,8.06v.58c0,3.07-1.15,5.76-3.46,8.06-2.3,2.3-5,3.46-8.06,3.46h-.58c-3.07,0-5.76-1.15-8.06-3.46-2.3-2.3-3.46-4.99-3.46-8.06v-.58c0-3.07,1.15-5.76,3.46-8.06,2.3-2.3,4.99-3.46,8.06-3.46h.58ZM328.89,115.2c3.07,0,5.76,1.15,8.06,3.46,2.3,2.3,3.46,5,3.46,8.06v.58c0,3.07-1.15,5.76-3.46,8.06-2.3,2.3-5,3.46-8.06,3.46h-.58c-3.07,0-5.76-1.15-8.06-3.46-2.3-2.3-3.46-4.99-3.46-8.06v-.58c0-3.07,1.15-5.76,3.46-8.06,2.3-2.3,4.99-3.46,8.06-3.46h.58ZM328.89,144c3.07,0,5.76,1.15,8.06,3.46,2.3,2.3,3.46,4.99,3.46,8.06v.58c0,3.07-1.15,5.76-3.46,8.06-2.3,2.3-5,3.46-8.06,3.46h-.58c-3.07,0-5.76-1.15-8.06-3.46-2.3-2.3-3.46-4.99-3.46-8.06v-.58c0-3.07,1.15-5.76,3.46-8.06,2.3-2.3,4.99-3.46,8.06-3.46h.58ZM357.69,57.6c3.07,0,5.76,1.15,8.06,3.46,2.3,2.3,3.46,5,3.46,8.06v.58c0,3.07-1.15,5.76-3.46,8.06-2.3,2.3-5,3.46-8.06,3.46h-.58c-3.07,0-5.76-1.15-8.06-3.46-2.3-2.3-3.46-4.99-3.46-8.06v-.58c0-3.07,1.15-5.76,3.46-8.06,2.3-2.3,4.99-3.46,8.06-3.46h.58ZM357.69,115.2c3.07,0,5.76,1.15,8.06,3.46,2.3,2.3,3.46,5,3.46,8.06v.58c0,3.07-1.15,5.76-3.46,8.06-2.3,2.3-5,3.46-8.06,3.46h-.58c-3.07,0-5.76-1.15-8.06-3.46-2.3-2.3-3.46-4.99-3.46-8.06v-.58c0-3.07,1.15-5.76,3.46-8.06,2.3-2.3,4.99-3.46,8.06-3.46h.58ZM357.69,172.8c3.07,0,5.76,1.15,8.06,3.46,2.3,2.3,3.46,5,3.46,8.06v.58c0,3.07-1.15,5.76-3.46,8.06-2.3,2.3-5,3.46-8.06,3.46h-.58c-3.07,0-5.76-1.15-8.06-3.46-2.3-2.3-3.46-4.99-3.46-8.06v-.58c0-3.07,1.15-5.76,3.46-8.06,2.3-2.3,4.99-3.46,8.06-3.46h.58ZM386.49,57.6c3.07,0,5.76,1.15,8.06,3.46,2.3,2.3,3.46,5,3.46,8.06v.58c0,3.07-1.15,5.76-3.46,8.06-2.3,2.3-4.99,3.46-8.06,3.46h-.58c-3.07,0-5.76-1.15-8.06-3.46-2.3-2.3-3.46-4.99-3.46-8.06v-.58c0-3.07,1.15-5.76,3.46-8.06,2.3-2.3,4.99-3.46,8.06-3.46h.58ZM386.49,115.2c3.07,0,5.76,1.15,8.06,3.46,2.3,2.3,3.46,5,3.46,8.06v.58c0,3.07-1.15,5.76-3.46,8.06-2.3,2.3-4.99,3.46-8.06,3.46h-.58c-3.07,0-5.76-1.15-8.06-3.46-2.3-2.3-3.46-4.99-3.46-8.06v-.58c0-3.07,1.15-5.76,3.46-8.06,2.3-2.3,4.99-3.46,8.06-3.46h.58ZM386.49,172.8c3.07,0,5.76,1.15,8.06,3.46,2.3,2.3,3.46,5,3.46,8.06v.58c0,3.07-1.15,5.76-3.46,8.06-2.3,2.3-4.99,3.46-8.06,3.46h-.58c-3.07,0-5.76-1.15-8.06-3.46-2.3-2.3-3.46-4.99-3.46-8.06v-.58c0-3.07,1.15-5.76,3.46-8.06,2.3-2.3,4.99-3.46,8.06-3.46h.58ZM415.29,57.6c3.07,0,5.76,1.15,8.06,3.46,2.3,2.3,3.46,5,3.46,8.06v.58c0,3.07-1.15,5.76-3.46,8.06-2.3,2.3-5,3.46-8.06,3.46h-.58c-3.07,0-5.76-1.15-8.06-3.46-2.3-2.3-3.46-4.99-3.46-8.06v-.58c0-3.07,1.15-5.76,3.46-8.06,2.3-2.3,4.99-3.46,8.06-3.46h.58ZM415.29,115.2c3.07,0,5.76,1.15,8.06,3.46,2.3,2.3,3.46,5,3.46,8.06v.58c0,3.07-1.15,5.76-3.46,8.06-2.3,2.3-5,3.46-8.06,3.46h-.58c-3.07,0-5.76-1.15-8.06-3.46-2.3-2.3-3.46-4.99-3.46-8.06v-.58c0-3.07,1.15-5.76,3.46-8.06,2.3-2.3,4.99-3.46,8.06-3.46h.58ZM415.29,172.8c3.07,0,5.76,1.15,8.06,3.46,2.3,2.3,3.46,5,3.46,8.06v.58c0,3.07-1.15,5.76-3.46,8.06-2.3,2.3-5,3.46-8.06,3.46h-.58c-3.07,0-5.76-1.15-8.06-3.46-2.3-2.3-3.46-4.99-3.46-8.06v-.58c0-3.07,1.15-5.76,3.46-8.06,2.3-2.3,4.99-3.46,8.06-3.46h.58ZM444.09,86.4c3.07,0,5.76,1.15,8.06,3.46,2.3,2.3,3.46,4.99,3.46,8.06v.58c0,3.07-1.15,5.76-3.46,8.06-2.3,2.3-5,3.46-8.06,3.46h-.58c-3.07,0-5.76-1.15-8.06-3.46-2.3-2.3-3.46-4.99-3.46-8.06v-.58c0-3.07,1.15-5.76,3.46-8.06,2.3-2.3,4.99-3.46,8.06-3.46h.58ZM444.09,115.2c3.07,0,5.76,1.15,8.06,3.46,2.3,2.3,3.46,5,3.46,8.06v.58c0,3.07-1.15,5.76-3.46,8.06-2.3,2.3-5,3.46-8.06,3.46h-.58c-3.07,0-5.76-1.15-8.06-3.46-2.3-2.3-3.46-4.99-3.46-8.06v-.58c0-3.07,1.15-5.76,3.46-8.06,2.3-2.3,4.99-3.46,8.06-3.46h.58Z"/><path class="cls-1" d="M501.69,57.6c3.07,0,5.76,1.15,8.06,3.46,2.3,2.3,3.46,5,3.46,8.06v.58c0,3.07-1.15,5.76-3.46,8.06-2.3,2.3-5,3.46-8.06,3.46h-.58c-3.07,0-5.76-1.15-8.06-3.46-2.3-2.3-3.46-4.99-3.46-8.06v-.58c0-3.07,1.15-5.76,3.46-8.06,2.3-2.3,4.99-3.46,8.06-3.46h.58ZM530.49,0c3.07,0,5.76,1.15,8.06,3.46,2.3,2.3,3.46,4.99,3.46,8.06v.58c0,3.07-1.15,5.76-3.46,8.06-2.3,2.3-5,3.46-8.06,3.46h-.58c-3.07,0-5.76-1.15-8.06-3.46-2.3-2.3-3.46-4.99-3.46-8.06v-.58c0-3.07,1.15-5.76,3.46-8.06,2.3-2.3,4.99-3.46,8.06-3.46h.58ZM530.49,28.8c3.07,0,5.76,1.15,8.06,3.46,2.3,2.3,3.46,5,3.46,8.06v.58c0,3.07-1.15,5.76-3.46,8.06-2.3,2.3-5,3.46-8.06,3.46h-.58c-3.07,0-5.76-1.15-8.06-3.46-2.3-2.3-3.46-4.99-3.46-8.06v-.58c0-3.07,1.15-5.76,3.46-8.06,2.3-2.3,4.99-3.46,8.06-3.46h.58ZM530.49,57.6c3.07,0,5.76,1.15,8.06,3.46,2.3,2.3,3.46,5,3.46,8.06v.58c0,3.07-1.15,5.76-3.46,8.06-2.3,2.3-5,3.46-8.06,3.46h-.58c-3.07,0-5.76-1.15-8.06-3.46-2.3-2.3-3.46-4.99-3.46-8.06v-.58c0-3.07,1.15-5.76,3.46-8.06,2.3-2.3,4.99-3.46,8.06-3.46h.58ZM530.49,86.4c3.07,0,5.76,1.15,8.06,3.46,2.3,2.3,3.46,4.99,3.46,8.06v.58c0,3.07-1.15,5.76-3.46,8.06-2.3,2.3-5,3.46-8.06,3.46h-.58c-3.07,0-5.76-1.15-8.06-3.46-2.3-2.3-3.46-4.99-3.46-8.06v-.58c0-3.07,1.15-5.76,3.46-8.06,2.3-2.3,4.99-3.46,8.06-3.46h.58ZM530.49,115.2c3.07,0,5.76,1.15,8.06,3.46,2.3,2.3,3.46,5,3.46,8.06v.58c0,3.07-1.15,5.76-3.46,8.06-2.3,2.3-5,3.46-8.06,3.46h-.58c-3.07,0-5.76-1.15-8.06-3.46-2.3-2.3-3.46-4.99-3.46-8.06v-.58c0-3.07,1.15-5.76,3.46-8.06,2.3-2.3,4.99-3.46,8.06-3.46h.58ZM530.49,144c3.07,0,5.76,1.15,8.06,3.46,2.3,2.3,3.46,4.99,3.46,8.06v.58c0,3.07-1.15,5.76-3.46,8.06-2.3,2.3-5,3.46-8.06,3.46h-.58c-3.07,0-5.76-1.15-8.06-3.46-2.3-2.3-3.46-4.99-3.46-8.06v-.58c0-3.07,1.15-5.76,3.46-8.06,2.3-2.3,4.99-3.46,8.06-3.46h.58ZM559.29,57.6c3.07,0,5.76,1.15,8.06,3.46,2.3,2.3,3.46,5,3.46,8.06v.58c0,3.07-1.15,5.76-3.46,8.06-2.3,2.3-4.99,3.46-8.06,3.46h-.58c-3.07,0-5.76-1.15-8.06-3.46-2.3-2.3-3.46-4.99-3.46-8.06v-.58c0-3.07,1.15-5.76,3.46-8.06,2.3-2.3,4.99-3.46,8.06-3.46h.58ZM559.29,172.8c3.07,0,5.76,1.15,8.06,3.46,2.3,2.3,3.46,5,3.46,8.06v.58c0,3.07-1.15,5.76-3.46,8.06-2.3,2.3-4.99,3.46-8.06,3.46h-.58c-3.07,0-5.76-1.15-8.06-3.46-2.3-2.3-3.46-4.99-3.46-8.06v-.58c0-3.07,1.15-5.76,3.46-8.06,2.3-2.3,4.99-3.46,8.06-3.46h.58ZM588.09,57.6c3.07,0,5.76,1.15,8.06,3.46,2.3,2.3,3.46,5,3.46,8.06v.58c0,3.07-1.15,5.76-3.46,8.06-2.3,2.3-5,3.46-8.06,3.46h-.58c-3.07,0-5.76-1.15-8.06-3.46-2.3-2.3-3.46-4.99-3.46-8.06v-.58c0-3.07,1.15-5.76,3.46-8.06,2.3-2.3,4.99-3.46,8.06-3.46h.58ZM588.09,172.8c3.07,0,5.76,1.15,8.06,3.46,2.3,2.3,3.46,5,3.46,8.06v.58c0,3.07-1.15,5.76-3.46,8.06-2.3,2.3-5,3.46-8.06,3.46h-.58c-3.07,0-5.76-1.15-8.06-3.46-2.3-2.3-3.46-4.99-3.46-8.06v-.58c0-3.07,1.15-5.76,3.46-8.06,2.3-2.3,4.99-3.46,8.06-3.46h.58ZM616.89,144c3.07,0,5.76,1.15,8.06,3.46,2.3,2.3,3.46,4.99,3.46,8.06v.58c0,3.07-1.15,5.76-3.46,8.06-2.3,2.3-5,3.46-8.06,3.46h-.58c-3.07,0-5.76-1.15-8.06-3.46-2.3-2.3-3.46-4.99-3.46-8.06v-.58c0-3.07,1.15-5.76,3.46-8.06,2.3-2.3,4.99-3.46,8.06-3.46h.58Z"/><path class="cls-1" d="M674.49,144c3.07,0,5.76,1.15,8.06,3.46,2.3,2.3,3.46,4.99,3.46,8.06v.58c0,3.07-1.15,5.76-3.46,8.06-2.3,2.3-5,3.46-8.06,3.46h-.58c-3.07,0-5.76-1.15-8.06-3.46-2.3-2.3-3.46-4.99-3.46-8.06v-.58c0-3.07,1.15-5.76,3.46-8.06,2.3-2.3,4.99-3.46,8.06-3.46h.58ZM703.29,57.6c3.07,0,5.76,1.15,8.06,3.46,2.3,2.3,3.46,5,3.46,8.06v.58c0,3.07-1.15,5.76-3.46,8.06-2.3,2.3-5,3.46-8.06,3.46h-.58c-3.07,0-5.76-1.15-8.06-3.46-2.3-2.3-3.46-4.99-3.46-8.06v-.58c0-3.07,1.15-5.76,3.46-8.06,2.3-2.3,4.99-3.46,8.06-3.46h.58ZM703.29,115.2c3.07,0,5.76,1.15,8.06,3.46,2.3,2.3,3.46,5,3.46,8.06v.58c0,3.07-1.15,5.76-3.46,8.06-2.3,2.3-5,3.46-8.06,3.46h-.58c-3.07,0-5.76-1.15-8.06-3.46-2.3-2.3-3.46-4.99-3.46-8.06v-.58c0-3.07,1.15-5.76,3.46-8.06,2.3-2.3,4.99-3.46,8.06-3.46h.58ZM703.29,172.8c3.07,0,5.76,1.15,8.06,3.46,2.3,2.3,3.46,5,3.46,8.06v.58c0,3.07-1.15,5.76-3.46,8.06-2.3,2.3-5,3.46-8.06,3.46h-.58c-3.07,0-5.76-1.15-8.06-3.46-2.3-2.3-3.46-4.99-3.46-8.06v-.58c0-3.07,1.15-5.76,3.46-8.06,2.3-2.3,4.99-3.46,8.06-3.46h.58ZM732.09,57.6c3.07,0,5.76,1.15,8.06,3.46,2.3,2.3,3.46,5,3.46,8.06v.58c0,3.07-1.15,5.76-3.46,8.06-2.3,2.3-4.99,3.46-8.06,3.46h-.58c-3.07,0-5.76-1.15-8.06-3.46-2.3-2.3-3.46-4.99-3.46-8.06v-.58c0-3.07,1.15-5.76,3.46-8.06,2.3-2.3,4.99-3.46,8.06-3.46h.58ZM732.09,115.2c3.07,0,5.76,1.15,8.06,3.46,2.3,2.3,3.46,5,3.46,8.06v.58c0,3.07-1.15,5.76-3.46,8.06-2.3,2.3-4.99,3.46-8.06,3.46h-.58c-3.07,0-5.76-1.15-8.06-3.46-2.3-2.3-3.46-4.99-3.46-8.06v-.58c0-3.07,1.15-5.76,3.46-8.06,2.3-2.3,4.99-3.46,8.06-3.46h.58ZM732.09,172.8c3.07,0,5.76,1.15,8.06,3.46,2.3,2.3,3.46,5,3.46,8.06v.58c0,3.07-1.15,5.76-3.46,8.06-2.3,2.3-4.99,3.46-8.06,3.46h-.58c-3.07,0-5.76-1.15-8.06-3.46-2.3-2.3-3.46-4.99-3.46-8.06v-.58c0-3.07,1.15-5.76,3.46-8.06,2.3-2.3,4.99-3.46,8.06-3.46h.58ZM760.89,57.6c3.07,0,5.76,1.15,8.06,3.46,2.3,2.3,3.46,5,3.46,8.06v.58c0,3.07-1.15,5.76-3.46,8.06-2.3,2.3-5,3.46-8.06,3.46h-.58c-3.07,0-5.76-1.15-8.06-3.46-2.3-2.3-3.46-4.99-3.46-8.06v-.58c0-3.07,1.15-5.76,3.46-8.06,2.3-2.3,4.99-3.46,8.06-3.46h.58ZM760.89,115.2c3.07,0,5.76,1.15,8.06,3.46,2.3,2.3,3.46,5,3.46,8.06v.58c0,3.07-1.15,5.76-3.46,8.06-2.3,2.3-5,3.46-8.06,3.46h-.58c-3.07,0-5.76-1.15-8.06-3.46-2.3-2.3-3.46-4.99-3.46-8.06v-.58c0-3.07,1.15-5.76,3.46-8.06,2.3-2.3,4.99-3.46,8.06-3.46h.58ZM760.89,172.8c3.07,0,5.76,1.15,8.06,3.46,2.3,2.3,3.46,5,3.46,8.06v.58c0,3.07-1.15,5.76-3.46,8.06-2.3,2.3-5,3.46-8.06,3.46h-.58c-3.07,0-5.76-1.15-8.06-3.46-2.3-2.3-3.46-4.99-3.46-8.06v-.58c0-3.07,1.15-5.76,3.46-8.06,2.3-2.3,4.99-3.46,8.06-3.46h.58ZM789.69,86.4c3.07,0,5.76,1.15,8.06,3.46,2.3,2.3,3.46,4.99,3.46,8.06v.58c0,3.07-1.15,5.76-3.46,8.06-2.3,2.3-5,3.46-8.06,3.46h-.58c-3.07,0-5.76-1.15-8.06-3.46-2.3-2.3-3.46-4.99-3.46-8.06v-.58c0-3.07,1.15-5.76,3.46-8.06,2.3-2.3,4.99-3.46,8.06-3.46h.58ZM789.69,115.2c3.07,0,5.76,1.15,8.06,3.46,2.3,2.3,3.46,5,3.46,8.06v.58c0,3.07-1.15,5.76-3.46,8.06-2.3,2.3-5,3.46-8.06,3.46h-.58c-3.07,0-5.76-1.15-8.06-3.46-2.3-2.3-3.46-4.99-3.46-8.06v-.58c0-3.07,1.15-5.76,3.46-8.06,2.3-2.3,4.99-3.46,8.06-3.46h.58ZM789.69,144c3.07,0,5.76,1.15,8.06,3.46,2.3,2.3,3.46,4.99,3.46,8.06v.58c0,3.07-1.15,5.76-3.46,8.06-2.3,2.3-5,3.46-8.06,3.46h-.58c-3.07,0-5.76-1.15-8.06-3.46-2.3-2.3-3.46-4.99-3.46-8.06v-.58c0-3.07,1.15-5.76,3.46-8.06,2.3-2.3,4.99-3.46,8.06-3.46h.58ZM789.69,172.8c3.07,0,5.76,1.15,8.06,3.46,2.3,2.3,3.46,5,3.46,8.06v.58c0,3.07-1.15,5.76-3.46,8.06s-5,3.46-8.06,3.46h-.58c-3.07,0-5.76-1.15-8.06-3.46s-3.46-4.99-3.46-8.06v-.58c0-3.07,1.15-5.76,3.46-8.06,2.3-2.3,4.99-3.46,8.06-3.46h.58Z"/><path class="cls-1" d="M876.08,0c3.07,0,5.76,1.15,8.06,3.46,2.3,2.3,3.46,4.99,3.46,8.06v.58c0,3.07-1.15,5.76-3.46,8.06-2.3,2.3-5,3.46-8.06,3.46h-.58c-3.07,0-5.76-1.15-8.06-3.46-2.3-2.3-3.46-4.99-3.46-8.06v-.58c0-3.07,1.15-5.76,3.46-8.06,2.3-2.3,4.99-3.46,8.06-3.46h.58ZM876.08,172.8c3.07,0,5.76,1.15,8.06,3.46,2.3,2.3,3.46,5,3.46,8.06v.58c0,3.07-1.15,5.76-3.46,8.06-2.3,2.3-5,3.46-8.06,3.46h-.58c-3.07,0-5.76-1.15-8.06-3.46-2.3-2.3-3.46-4.99-3.46-8.06v-.58c0-3.07,1.15-5.76,3.46-8.06,2.3-2.3,4.99-3.46,8.06-3.46h.58ZM904.88,0c3.07,0,5.76,1.15,8.06,3.46,2.3,2.3,3.46,4.99,3.46,8.06v.58c0,3.07-1.15,5.76-3.46,8.06-2.3,2.3-4.99,3.46-8.06,3.46h-.58c-3.07,0-5.76-1.15-8.06-3.46-2.3-2.3-3.46-4.99-3.46-8.06v-.58c0-3.07,1.15-5.76,3.46-8.06,2.3-2.3,4.99-3.46,8.06-3.46h.58ZM904.88,172.8c3.07,0,5.76,1.15,8.06,3.46,2.3,2.3,3.46,5,3.46,8.06v.58c0,3.07-1.15,5.76-3.46,8.06-2.3,2.3-4.99,3.46-8.06,3.46h-.58c-3.07,0-5.76-1.15-8.06-3.46-2.3-2.3-3.46-4.99-3.46-8.06v-.58c0-3.07,1.15-5.76,3.46-8.06,2.3-2.3,4.99-3.46,8.06-3.46h.58ZM933.68,0c3.07,0,5.76,1.15,8.06,3.46,2.3,2.3,3.46,4.99,3.46,8.06v.58c0,3.07-1.15,5.76-3.46,8.06-2.3,2.3-5,3.46-8.06,3.46h-.58c-3.07,0-5.76-1.15-8.06-3.46-2.3-2.3-3.46-4.99-3.46-8.06v-.58c0-3.07,1.15-5.76,3.46-8.06,2.3-2.3,4.99-3.46,8.06-3.46h.58ZM933.68,28.8c3.07,0,5.76,1.15,8.06,3.46,2.3,2.3,3.46,5,3.46,8.06v.58c0,3.07-1.15,5.76-3.46,8.06-2.3,2.3-5,3.46-8.06,3.46h-.58c-3.07,0-5.76-1.15-8.06-3.46-2.3-2.3-3.46-4.99-3.46-8.06v-.58c0-3.07,1.15-5.76,3.46-8.06,2.3-2.3,4.99-3.46,8.06-3.46h.58ZM933.68,57.6c3.07,0,5.76,1.15,8.06,3.46,2.3,2.3,3.46,5,3.46,8.06v.58c0,3.07-1.15,5.76-3.46,8.06-2.3,2.3-5,3.46-8.06,3.46h-.58c-3.07,0-5.76-1.15-8.06-3.46-2.3-2.3-3.46-4.99-3.46-8.06v-.58c0-3.07,1.15-5.76,3.46-8.06,2.3-2.3,4.99-3.46,8.06-3.46h.58ZM933.68,86.4c3.07,0,5.76,1.15,8.06,3.46,2.3,2.3,3.46,4.99,3.46,8.06v.58c0,3.07-1.15,5.76-3.46,8.06-2.3,2.3-5,3.46-8.06,3.46h-.58c-3.07,0-5.76-1.15-8.06-3.46-2.3-2.3-3.46-4.99-3.46-8.06v-.58c0-3.07,1.15-5.76,3.46-8.06,2.3-2.3,4.99-3.46,8.06-3.46h.58ZM933.68,115.2c3.07,0,5.76,1.15,8.06,3.46,2.3,2.3,3.46,5,3.46,8.06v.58c0,3.07-1.15,5.76-3.46,8.06-2.3,2.3-5,3.46-8.06,3.46h-.58c-3.07,0-5.76-1.15-8.06-3.46-2.3-2.3-3.46-4.99-3.46-8.06v-.58c0-3.07,1.15-5.76,3.46-8.06,2.3-2.3,4.99-3.46,8.06-3.46h.58ZM933.68,144c3.07,0,5.76,1.15,8.06,3.46,2.3,2.3,3.46,4.99,3.46,8.06v.58c0,3.07-1.15,5.76-3.46,8.06-2.3,2.3-5,3.46-8.06,3.46h-.58c-3.07,0-5.76-1.15-8.06-3.46-2.3-2.3-3.46-4.99-3.46-8.06v-.58c0-3.07,1.15-5.76,3.46-8.06,2.3-2.3,4.99-3.46,8.06-3.46h.58ZM933.68,172.8c3.07,0,5.76,1.15,8.06,3.46,2.3,2.3,3.46,5,3.46,8.06v.58c0,3.07-1.15,5.76-3.46,8.06-2.3,2.3-5,3.46-8.06,3.46h-.58c-3.07,0-5.76-1.15-8.06-3.46-2.3-2.3-3.46-4.99-3.46-8.06v-.58c0-3.07,1.15-5.76,3.46-8.06,2.3-2.3,4.99-3.46,8.06-3.46h.58Z"/></g></svg>