<?xml version="1.0" encoding="UTF-8"?><svg id="Layer_2" xmlns="http://www.w3.org/2000/svg" viewBox="0 0 1541.84 1169.15"><defs><style>.cls-1{fill:#013362;}.cls-2{fill:#fcb416;}.cls-3{fill:#fefefe;}</style></defs><g id="CalOskiLogo_Image"><path class="cls-2" d="M1282.69,628.66c-.54-1.95-3.2-1.24-4.5-1.5-.38-.08-.6-.89-1-1-1.32-.36-1.6.91-2,1-8.28,1.85-37.11-.04-46-1-5.37-.58-9.63,1.58-15,1-6.38-.69-15.71-.78-22,0-3.14.39-8.46-.7-11,0-1.85.51-1.84,5.61-1.5,7.5.59,3.33,1.46,15.67,1,20-.75,7.01-.67,15.91,0,23,.55,5.81-1.59,10.5-1,16s1.57,18.67,1,24c-1.18,11.03-.23,23.23-2,35-.44,2.93-1.23,7.01-2,10-1.89,7.3-4.72,13.61-8,21-8.74,19.68-26.96,41.43-44.5,56.5-5.34,4.59-10.82,10.52-16,15-26.44,22.88-47.23,50.57-75,72-18.18,14.03-39.61,20.6-61,24-142.38,1.65-287.62,1.66-430,0-3.25-1.62-7.37-2.15-11-3-5.16-3.28-9.84-6.49-15-10s-10.85-7.38-16-11c-2.09-1.47-2.49-3.9-6-3-8.77,8.19-17.21,16.85-26,25-20.27,18.79-41.4,39.49-62,58-4.67,4.2-8.96,8.78-14,12-1.45.92-1.18,1.93-1.5,2.5-.42.76-1.76,2.36-2,3-.31.84.53,2.2-1,3v85c-2.62,10.31-6.13,20.01-12,30-2.26,3.85-2.34,5.04-6.5,7.5-3.7,2.19-6.21,3.37-10,6-2.52,1.75-11.03,7.19-14,8-1.4.38-2.5.55-4,1-4.62,1.38-8.15,1.38-13,2-20.14,2.56-40.61,1.43-61,1-29.11-.62-58.59,3.7-86-2-20.72-4.31-37.72-20.44-48.5-38.5-1.1-1.85-.45-4.4-2-6v-119c1.78-3.91.65-8.55,2-13,5.11-16.79,19.1-30.32,33.5-38.5,2.04-1.16,4.98-3.2,7-4,3.88-1.54,8.64-1.47,12-3h149c.79-1.53,2.21-.68,3-1,.39-.16.59-.81,1-1,.31-.14.78.13,1,0,3.92-2.33,9.19-10.88,13-13,4.19-2.33,10.19-9.54,15-14,13.74-12.73,29.17-26,43-39,3.09-2.9,10.24-11.46,13-13,.47-.26,1.31.19,1.5,0,.17-.17-.22-.96,0-1.5.17-.42.88-.62,1-1,.73-2.42-2.47-4.23-4-6-1.99-2.3-13.99-15.1-16.5-16.5-3.14-1.75-9.8-8.52-13.5-12.5-14.12-15.18-27.79-32.62-34-53-2.89-9.48-3.21-20.07-5-30v-114c-1.03-1.9-2.39-1.15-3.5-1.5-.41-.13-.63-.93-1-1-1.13-.2-3.82-.18-5,0-11.64,1.73-28.64,2.03-41,1-8.09-.68-16.91-.68-25,0-2.74.23-15.92-.58-16.5,0-.21.21.2,1.76,0,2.5-.11.41-.95.64-1,1-1.05,7.12.93,14.75-1,22-.41,1.54-1.38,3.91-2,6-.05.18-1.48,2.08-2,3-5.95,10.51-24.45,29.11-35.5,33.5-3.75,1.49-7.22,1.43-11,2-12.83,1.93-26.12,2.35-40,2-20.96-.53-43.33-1.41-65-1-12.5.24-25.32.86-38,0-4.74-.32-7.51-.2-12-1-2.37-.42-5.69-.37-8-1-.46-.12-2.42-1.78-3-2-4.4-1.67-7.99-3.18-12-6-8.5-5.98-21.55-19.55-25.5-29.5-2.66-6.71-2.42-10.99-3-18-.03-.36-.98-.65-1-1-2.47-36.75,2.63-74.23,1-111,1.85-2.16,1.92-6.29,3-9,.96-2.4,2.09-2.83,3-6s8.38-8.09,10-11c.26-.47-.19-1.31,0-1.5s1.03.26,1.5,0c2.37-1.32,6.36-6.84,9-9,4.84-3.97,11.01-7.01,17-9,1.2-.4,3.91-1.75,5-2,4.13-.96,7.75-.61,12-1,45.01-4.16,94.83.21,140,0,9.79-.58,18.6,2.98,27,8,10,5.98,18.36,14.15,24.5,24.5.6,1.01,2.93,3.76,3,4,.84,2.95,1.26,6.01,2,9,.39,1.57,1.86,5.66,2,7,.29,2.71-.2,5.74,0,8.5l2.5,1h87l2.5-1v-119.5c1.95-7.55,1.04-16.42,3-24,.3-1.15.64-2.77,1-4,1.49-5.07,3.6-9.9,6-15,4.64-9.86,9.26-18.13,16-27,1.83-2.4,14.42-17.88,15.5-18.5,3.42-1.94,6.81-7.75,10-10s8.36-6.75,12-10c1.11-.99,3.89-3.48,4.5-4.5.13-.22-.14-.69,0-1,.2-.43.92-.64,1-1,.16-.72.18-3.35,0-4-.31-1.12-14.28-14.38-16.5-16.5-19.63-18.72-40.63-38.17-61-56-2.61-2.29-3.88-4.58-7-6-.43-.2-.64-.92-1-1-3.62-.81-10.7.27-15,0-43.86-2.75-92.81,2.65-137-2-2.23-.23-4.85.31-7,0-.37-.05-.61-.91-1-1-.91-.2-2.17.23-3,0-1.31-.36-3.02-2.41-4-3-13.35-8.02-25.72-18.28-33.5-31.5-1.42-2.42-4.12-6.6-5-9-.21-.56.18-1.36,0-2-.12-.41-.93-.63-1-1-.84-4.7-.19-15.67,0-21,.01-.34.99-.66,1-1,1.07-34.87-1.56-70.81,1-105,3.74-12.61,10.25-22.38,20.5-31.5.19-.17.81.17,1,0,3.67-3.26,10.78-10.85,15-12,2.33-.63,6.14-.3,8-2,52.51-2.28,106.79-.38,160-1,2.61,1.62,6.8,1.84,10,3,8.9,3.21,22.91,14.31,29.5,22.5s9.12,18.06,12,27v87c1.68,1.3,1.57,3.51,2,5,.21.71,9,9.09,10.5,10.5,18.94,17.87,39.66,35.99,59,54,9.68,9.01,18.82,19.17,29,27,1.63,1.25,2.59,3.73,5,3,.37-.11.57-.8,1-1,.31-.14.78.13,1,0,1.65-.98,4.11-3.77,6-5,23.45-15.33,50.29-19.02,77-22h391c13.21,1.58,24.74,3.15,37,7,17.21,5.4,28.36,9.92,43,21,3.63,2.75,7.2,9.77,11.5,11v2c6.85,4.07,13.3,14.3,19,20,17.82,17.82,41.26,37.95,60,58.5,13.07,14.34,26.5,32.72,33,51,1.78,5.01,2.76,10.01,4,15,2.23,8.96,2.62,18.7,4,28,.6,4.01-1.52,8.12-1,13,.64,5.95-.6,10.2,0,15,2.57,20.61-1.4,44.61,1,67,.53,4.97-.64,7.85,0,13,.2,1.64-.32,8.18,0,8.5.25.25,2.85-.56,3.5,1h96c.17-.05,2.45-2.33,2.5-2.5.76-2.75-.42-8.6,0-12,.08-.67.72-3.73,1-5,.08-.36,1.77-2.42,2-3,.61-1.51.9-4.07,2-6,4.14-7.28,15.46-19.82,22.5-24.5.8-.53,6.61-3.89,7-4,2.18-.63,3.84-1.31,6-2,1.18-.38,3.93-1.75,5-2,4.49-1.04,8.35-.62,13-1,45.48-3.75,93.72.72,140-1,8.31,1.36,15.75,3.34,24,6,1.64.53,2.57.61,4,1,.46.13,1.32,1.54,2,2,5.44,3.7,19.15,17.01,22.5,22.5,2.81,4.6,4.59,10.86,7,16,2.26,38.51.39,78.78,1,118-1.85,3.72-1.89,8.96-3,13-.05.18-1.43,1.9-2,3-6.35,12.15-18.83,23.64-30.5,30.5-1.97,1.16-7.3,4.54-9,5-.83.23-2.09-.2-3,0-2.21.48-3.55.63-6,1-5.26.79-9.38.7-15,1-28.88,1.54-59.03-.65-89,0-10.83.24-22.06.51-33,0-7.28-.34-14.12.41-21-1-.38-.08-.6-.9-1-1-16.59-4.26-25.03-15.24-35.5-27.5-2.73-3.2-6.26-6.02-8-10-.24-.55.23-1.42,0-2s-1.92-2.64-2-3c-.25-1.16.21-2.77,0-4-.07-.39-1-.67-1-1v-20ZM197.19,57.16c-2.72,1.77-5.47,2.7-7.5,5.5-.15.21.16.76,0,1-.46.68-1.87,1.53-2,2-.28.98.5,2.18-1,3v84c1.53.79.68,2.21,1,3,.16.39.81.59,1,1,.14.31-.13.78,0,1,.4.67,2.76,2.96,3.5,3.5.21.15.76-.16,1,0,.68.46,1.53,1.87,2,2,.98.28,2.18-.5,3,1h121c.79-1.53,2.21-.68,3-1,.39-.16.59-.81,1-1,.31-.14.78.13,1,0,2.92-1.74,4.8-5.86,6.5-8.5v-87c-1.13-.5-.82-1.7-1-2-.4-.67-4.83-5.1-5.5-5.5-.22-.13-.69.14-1,0-.41-.19-.61-.84-1-1-.79-.32-2.21.53-3-1h-122ZM574.19,270.16c-8.86,1.98-18.23,3.25-27,7-12.33,5.28-19.27,12.98-29,22-21.28,19.72-42,40.4-63,61-13.34,13.08-29.01,24.68-36.5,42.5-2.3,5.46-3.5,10.61-5,16,.65,109.86-1.32,220.84,1,330,2.76,8.46,5.22,15.29,11,23,12.37,16.51,29.6,30.06,44.5,44.5,19.56,18.95,38.42,40.4,59,57,9.44,7.61,18.58,13.51,30,17,6.19,1.89,12.85,1.41,19,3,128.53-.64,258.17,1.3,386-1,15.9-3.49,30.59-11.13,43-22,21.01-18.41,41.85-41.26,62-61,13.74-13.46,32.89-28.43,42.5-44.5,2.55-4.26,4.9-8.73,6-13,.87-3.36.54-7.19,2-10v-92c-1.37-1.13-1.12-3.54-2-5-1.48-2.45-7.93-9.79-10.5-11.5-.93-.62-3.72-1.54-5-2-.41-.15-.62-.9-1-1-1.35-.37-3.07.69-4-1h-144c-1.97.93-3.86,1.88-6,3-5.17,2.71-7.13,4.69-10.5,9.5-1.23,1.76-3.24,3.95-4,6-1.5,4.08-1.88,10.47-3,15-1.43,5.78-1.57,5.6-5,10-8.54,10.94-28.48,31.23-39.5,39.5-3.12,2.35-7.49,5.71-11,7-.84.31-2.2-.53-3,1h-215c-4.9-2.14-7.82-3.88-12-7-9.93-7.4-30.12-27.57-37.5-37.5-.69-.93-3.86-4.51-4-5-.55-1.88-.55-4.68-2-6v-168c1.52-2.17,1.18-5.44,2-8,11.86-14.05,26.49-26.93,39.5-40.5,2.12-.03,6.78-5.65,8-6,.66-.19,1.5.23,2,0,1.27-.59,3.97-2.72,5-3,1.35-.37,3.07.69,4-1h218c.93,1.69,2.65.63,4,1s5.42,3.07,7,4c12.58,7.4,23.76,23.48,35.5,33.5.18,2.5,3.61,6.25,4,8s-.24,4.14,0,6c.05.37.97.64,1,1,.58,6.35-.76,13.81,0,20,.05.37.93.62,1,1,.21,1.23-.25,2.84,0,4,.14.66,2.38,4,3,5,1.54,2.5,5.85,7.74,8.5,9.5.53.35,5.67,2.91,6,3,1.35.37,3.07-.69,4,1h144c2.31-1.34,5.48-1.56,8-3,.57-.33,2.62-1.72,3-2,2.29-1.71,8.65-8.37,9.5-10.5l2-6c-.57-34.57,1.21-70.13-1-104-2.9-8.41-7.12-17.69-12-25-29.45-29.77-59.23-62.62-90.5-90.5-14-12.48-22.96-18.39-41-22-2.75-.55-6.47-.89-9-2h-392ZM62.69,539.16c-.07,2.64-3.05,4.11-4,6.5v85c1.74,2.7,3.57,6.75,6.5,8.5.22.13.69-.14,1,0,.43.19.63.9,1,1,1.34.37,3.08-.69,4,1,28.32-.4,56.69.54,85,0,.34,0,.66-.99,1-1,12.66-.25,25.34.19,38,0,2.3-1.71,4.67-2.09,6.5-4.5.15-.19-.17-.75,0-1,.46-.68,1.87-1.53,2-2,.28-.98-.5-2.18,1-3v-82c-1.53-.79-.68-2.21-1-3-.16-.39-.81-.59-1-1-.14-.31.13-.78,0-1-.36-.61-3.89-4.14-4.5-4.5-.22-.13-.69.14-1,0-.41-.19-.61-.84-1-1-.79-.32-2.21.53-3-1h-123l-7.5,3ZM1350.19,536.16c-1.13,1.37-3.53,1.12-5,2-.61.36-4.14,3.89-4.5,4.5-.13.22.14.69,0,1-.19.41-.84.61-1,1-.32.79.53,2.21-1,3v82c2.13,2.58,2.68,6.7,5.5,8.5.45.29,2.32.73,3,1,.43.17.63.92,1,1,1.71.38,3.89-.8,5,1h117c1.11-1.8,3.29-.62,5-1,.36-.08.57-.8,1-1,.31-.14.78.13,1,0,2.47-1.47,4.55-4.88,5.5-7.5.15-.41.9-.62,1-1,.37-1.35-.69-3.08,1-4v-77c-1.69-.92-.63-2.65-1-4-.12-.43-1.6-2.32-2-3-.16-.26.14-.79,0-1-.43-.65-2.89-3.14-3.5-3.5-.22-.13-.69.14-1,0-.41-.19-.61-.84-1-1-.79-.32-2.21.53-3-1h-123ZM197.19,1001.16c-2.7,1.74-6.75,3.57-8.5,6.5-.13.22.14.69,0,1-.19.43-.9.63-1,1-.37,1.34.69,3.08-1,4v85l1,3c1.94,1.62,2.4,3.91,4.5,5.5.2.15.75-.17,1,0,.68.46,1.53,1.87,2,2,.98.28,2.18-.5,3,1h122l3-1c1.46-1.94,4.17-2.41,5.5-4.5.29-.46.71-2.35,1-3,.19-.42.86-.61,1-1,.31-.84-.53-2.2,1-3v-85c-1.5-.82-.72-2.02-1-3-.13-.47-1.54-1.32-2-2-.16-.24.15-.79,0-1-.54-.74-2.83-3.1-3.5-3.5-.22-.13-.69.14-1,0-.41-.19-.61-.84-1-1-.79-.32-2.21.53-3-1h-123Z"/><path class="cls-1" d="M197.19,1001.16h123c.79,1.53,2.21.68,3,1,.39.16.59.81,1,1,.31.14.78-.13,1,0,.67.4,2.96,2.76,3.5,3.5.15.21-.16.76,0,1,.46.68,1.87,1.53,2,2,.28.98-.5,2.18,1,3v85c-1.53.8-.69,2.16-1,3-.14.39-.81.58-1,1-.29.65-.71,2.54-1,3-1.33,2.09-4.04,2.56-5.5,4.5l-3,1h-122c-.82-1.5-2.02-.72-3-1-.47-.13-1.32-1.54-2-2-.25-.17-.8.15-1,0-2.1-1.59-2.56-3.88-4.5-5.5l-1-3v-85c1.69-.92.63-2.66,1-4,.1-.37.81-.57,1-1,.14-.31-.13-.78,0-1,1.75-2.93,5.8-4.76,8.5-6.5Z"/><path class="cls-1" d="M197.19,57.16h122c.79,1.53,2.21.68,3,1,.39.16.59.81,1,1,.31.14.78-.13,1,0,.67.4,5.1,4.83,5.5,5.5.18.3-.13,1.5,1,2v87c-1.7,2.64-3.58,6.76-6.5,8.5-.22.13-.69-.14-1,0-.41.19-.61.84-1,1-.79.32-2.21-.53-3,1h-121c-.82-1.5-2.02-.72-3-1-.47-.13-1.32-1.54-2-2-.24-.16-.79.15-1,0-.74-.54-3.1-2.83-3.5-3.5-.13-.22.14-.69,0-1-.19-.41-.84-.61-1-1-.32-.79.53-2.21-1-3v-84c1.5-.82.72-2.02,1-3,.13-.47,1.54-1.32,2-2,.16-.24-.15-.79,0-1,2.03-2.8,4.78-3.73,7.5-5.5Z"/><path class="cls-3" d="M574.19,270.16h392c2.53,1.11,6.25,1.45,9,2,18.04,3.61,27,9.52,41,22,31.27,27.88,61.05,60.73,90.5,90.5,4.88,7.31,9.1,16.59,12,25,2.21,33.87.43,69.43,1,104l-2,6c-.85,2.13-7.21,8.79-9.5,10.5-.38.28-2.43,1.67-3,2-2.52,1.44-5.69,1.66-8,3h-144c-.93-1.69-2.65-.63-4-1-.33-.09-5.47-2.65-6-3-2.65-1.76-6.96-7-8.5-9.5-.62-1-2.86-4.34-3-5-.25-1.16.21-2.77,0-4-.07-.38-.95-.63-1-1-.76-6.19.58-13.65,0-20-.03-.36-.95-.63-1-1-.24-1.86.37-4.34,0-6-.39-1.75-3.82-5.5-4-8-11.74-10.02-22.92-26.1-35.5-33.5-1.58-.93-5.68-3.64-7-4s-3.07.69-4-1h-218c-.93,1.69-2.65.63-4,1-1.03.28-3.73,2.41-5,3-.5.23-1.34-.19-2,0-1.22.35-5.88,5.97-8,6-13.01,13.57-27.64,26.45-39.5,40.5-.82,2.56-.48,5.83-2,8v168c1.45,1.32,1.45,4.12,2,6,.14.49,3.31,4.07,4,5,7.38,9.93,27.57,30.1,37.5,37.5,4.18,3.12,7.1,4.86,12,7h215c.8-1.53,2.16-.69,3-1,3.51-1.29,7.88-4.65,11-7,11.02-8.27,30.96-28.56,39.5-39.5,3.43-4.4,3.57-4.22,5-10,1.12-4.53,1.5-10.92,3-15,.76-2.05,2.77-4.24,4-6,3.37-4.81,5.33-6.79,10.5-9.5,2.14-1.12,4.03-2.07,6-3h144c.93,1.69,2.65.63,4,1,.38.1.59.85,1,1,1.28.46,4.07,1.38,5,2,2.57,1.71,9.02,9.05,10.5,11.5.88,1.46.63,3.87,2,5v92c-1.46,2.81-1.13,6.64-2,10-1.1,4.27-3.45,8.74-6,13-9.61,16.07-28.76,31.04-42.5,44.5-20.15,19.74-40.99,42.59-62,61-12.41,10.87-27.1,18.51-43,22-127.83,2.3-257.47.36-386,1-6.15-1.59-12.81-1.11-19-3-11.42-3.49-20.56-9.39-30-17-20.58-16.6-39.44-38.05-59-57-14.9-14.44-32.13-27.99-44.5-44.5-5.78-7.71-8.24-14.54-11-23-2.32-109.16-.35-220.14-1-330,1.5-5.39,2.7-10.54,5-16,7.49-17.82,23.16-29.42,36.5-42.5,21-20.6,41.72-41.28,63-61,9.73-9.02,16.67-16.72,29-22,8.77-3.75,18.14-5.02,27-7ZM584.19,300.16c-4.33,1.7-10.18,1-15,2-1.68.35-4.4,2.29-6,3-.51.23-1.34-.19-2,0-.7.2-5.77,4.18-7,5-16.06,10.69-30.44,27.79-45,42-17.19,16.78-38.56,34.71-53.5,53.5-4.79,6.02-9.07,12.75-11,20-.92,3.46-.35,8.06-2,11,.65,99.2-1.31,199.51,1,298,1.55,4.39,2.62,8.45,5,13,5.08,9.69,15.17,19.46,23.5,27.5,10.74,10.37,23.29,21.6,34,32,17.03,16.53,37.38,41.9,58,51,2.84,1.25,5.89,1.38,9,2,3.47.69,7.78.77,11,2,117.36-2.19,236.4,3.36,353-1,7.47-.28,13.99.25,21-1,3.78-.67,5.4-.8,9-2,2.95-.98,4.04-1.33,7-3,14.34-8.1,25.67-22.08,38-34,24.12-23.32,49.92-47.64,72.5-72.5,2.17-4.56,3.76-8.16,5-13,.1-.4.92-.62,1-1,.35-1.73-.78-3.88,1-5v-62c-1.5-.82-.72-2.02-1-3-.39-1.37-5.29-4.68-6.5-5.5h-116c-2.4,1.72-5.89,2.79-7.5,5.5-.13.22.14.69,0,1-.2.43-.92.64-1,1-.6,2.7-.41,7.1-1,10-.25,1.21-2.43,4.03-2,6-19.55,21.2-41.3,42.95-62.5,62.5-2.41.84-4.64,2.03-7,3-.78.32-3.54,1.92-4,2-3.57.64-9.03-.23-13,0-19.72,1.13-40.42.24-60,0-54.98-.67-110.01.5-165,0-1.61-1.52-4.94-1.24-7-2-1.73-.64-4-2.9-6-3-17.03-17.51-40.72-36.28-55.5-55.5-1.98-2.57-2-1.5-3-5-.16-.56-1.84-1.44-2-2-.18-.63.19-1.41,0-2-.13-.4-.88-.61-1-1-.24-.81.19-2.08,0-3-.08-.39-.94-.62-1-1-.34-2.08.84-4.67-1-6,.63-60.87-1.29-122.83,1-183,1.64-4.84,3.07-9.58,6-14,6.36-9.59,16.63-17.67,24-26s17.13-17.36,25.5-24.5c7.09-6.05,9.38-8.62,19-11,.4-.1.62-.93,1-1,2.33-.41,5.45.94,7-1,81.54.64,164.17-1.3,245,1,.93,1.69,2.65.63,4,1,.94.26,3.81,2.33,5,3,6.94,3.92,10.94,9.33,17,15,9.59,8.98,22.97,19.7,30.5,30.5,2.68,3.85,2.86,4.38,4,9,.1.4.93.62,1,1,.37,2.07-.27,4.81,0,7,.09.72,1.51,2.21,1,5-.07.38-.95.63-1,1-.66,5.33.31,11.12,1,16,.81,1.33,5.14,7.11,6.5,7.5.98.28,2.18-.5,3,1h111c.79-1.53,2.21-.68,3-1,.39-.16.59-.81,1-1,.31-.14.78.13,1,0,.59-.35,5.39-5.13,5.5-5.5.28-.98-.5-2.18,1-3-1.27-21.11,1.7-44.13,0-65-.03-.36-.96-.64-1-1-.23-2.21.37-4.95,0-7-.08-.43-1.79-3.34-2-4-.25-.8.23-2.14,0-3-.99-3.65-5.72-10.04-8-13-18.2-23.68-45.66-47.39-67.5-68.5-9.55-9.23-23.66-26.51-35-31-6.77-2.68-11.91-2.42-19-3-.36-.03-.65-.98-1-1h-374Z"/><path class="cls-1" d="M584.19,300.16h374c.35.02.64.97,1,1,7.09.58,12.23.32,19,3,11.34,4.49,25.45,21.77,35,31,21.84,21.11,49.3,44.82,67.5,68.5,2.28,2.96,7.01,9.35,8,13,.23.86-.25,2.2,0,3,.21.66,1.92,3.57,2,4,.37,2.05-.23,4.79,0,7,.04.36.97.64,1,1,1.7,20.87-1.27,43.89,0,65-1.5.82-.72,2.02-1,3-.11.37-4.91,5.15-5.5,5.5-.22.13-.69-.14-1,0-.41.19-.61.84-1,1-.79.32-2.21-.53-3,1h-111c-.82-1.5-2.02-.72-3-1-1.36-.39-5.69-6.17-6.5-7.5-.69-4.88-1.66-10.67-1-16,.05-.37.93-.62,1-1,.51-2.79-.91-4.28-1-5-.27-2.19.37-4.93,0-7-.07-.38-.9-.6-1-1-1.14-4.62-1.32-5.15-4-9-7.53-10.8-20.91-21.52-30.5-30.5-6.06-5.67-10.06-11.08-17-15-1.19-.67-4.06-2.74-5-3-1.35-.37-3.07.69-4-1-80.83-2.3-163.46-.36-245-1-1.55,1.94-4.67.59-7,1-.38.07-.6.9-1,1-9.62,2.38-11.91,4.95-19,11-8.37,7.14-17.92,15.93-25.5,24.5s-17.64,16.41-24,26c-2.93,4.42-4.36,9.16-6,14-2.29,60.17-.37,122.13-1,183,1.84,1.33.66,3.92,1,6,.06.38.92.61,1,1,.19.92-.24,2.19,0,3,.12.39.87.6,1,1,.19.59-.18,1.37,0,2,.16.56,1.84,1.44,2,2,1,3.5,1.02,2.43,3,5,14.78,19.22,38.47,37.99,55.5,55.5,2,.1,4.27,2.36,6,3,2.06.76,5.39.48,7,2,54.99.5,110.02-.67,165,0,19.58.24,40.28,1.13,60,0,3.97-.23,9.43.64,13,0,.46-.08,3.22-1.68,4-2,2.36-.97,4.59-2.16,7-3,21.2-19.55,42.95-41.3,62.5-62.5-.43-1.97,1.75-4.79,2-6,.59-2.9.4-7.3,1-10,.08-.36.8-.57,1-1,.14-.31-.13-.78,0-1,1.61-2.71,5.1-3.78,7.5-5.5h116c1.21.82,6.11,4.13,6.5,5.5.28.98-.5,2.18,1,3v62c-1.78,1.12-.65,3.27-1,5-.08.38-.9.6-1,1-1.24,4.84-2.83,8.44-5,13-22.58,24.86-48.38,49.18-72.5,72.5-12.33,11.92-23.66,25.9-38,34-2.96,1.67-4.05,2.02-7,3-3.6,1.2-5.22,1.33-9,2-7.01,1.25-13.53.72-21,1-116.6,4.36-235.64-1.19-353,1-3.22-1.23-7.53-1.31-11-2-3.11-.62-6.16-.75-9-2-20.62-9.1-40.97-34.47-58-51-10.71-10.4-23.26-21.63-34-32-8.33-8.04-18.42-17.81-23.5-27.5-2.38-4.55-3.45-8.61-5-13-2.31-98.49-.35-198.8-1-298,1.65-2.94,1.08-7.54,2-11,1.93-7.25,6.21-13.98,11-20,14.94-18.79,36.31-36.72,53.5-53.5,14.56-14.21,28.94-31.31,45-42,1.23-.82,6.3-4.8,7-5,.66-.19,1.49.23,2,0,1.6-.71,4.32-2.65,6-3,4.82-1,10.67-.3,15-2Z"/><path class="cls-1" d="M1350.19,536.16h123c.79,1.53,2.21.68,3,1,.39.16.59.81,1,1,.31.14.78-.13,1,0,.61.36,3.07,2.85,3.5,3.5.14.21-.16.74,0,1,.4.68,1.88,2.57,2,3,.37,1.35-.69,3.08,1,4v77c-1.69.92-.63,2.65-1,4-.1.38-.85.59-1,1-.95,2.62-3.03,6.03-5.5,7.5-.22.13-.69-.14-1,0-.43.2-.64.92-1,1-1.71.38-3.89-.8-5,1h-117c-1.11-1.8-3.29-.62-5-1-.37-.08-.57-.83-1-1-.68-.27-2.55-.71-3-1-2.82-1.8-3.37-5.92-5.5-8.5v-82c1.53-.79.68-2.21,1-3,.16-.39.81-.59,1-1,.14-.31-.13-.78,0-1,.36-.61,3.89-4.14,4.5-4.5,1.47-.88,3.87-.63,5-2Z"/><path class="cls-1" d="M62.69,539.16l7.5-3h123c.79,1.53,2.21.68,3,1,.39.16.59.81,1,1,.31.14.78-.13,1,0,.61.36,4.14,3.89,4.5,4.5.13.22-.14.69,0,1,.19.41.84.61,1,1,.32.79-.53,2.21,1,3v82c-1.5.82-.72,2.02-1,3-.13.47-1.54,1.32-2,2-.17.25.15.81,0,1-1.83,2.41-4.2,2.79-6.5,4.5-12.66.19-25.34-.25-38,0-.34,0-.66.99-1,1-28.31.54-56.68-.4-85,0-.92-1.69-2.66-.63-4-1-.37-.1-.57-.81-1-1-.31-.14-.78.13-1,0-2.93-1.75-4.76-5.8-6.5-8.5v-85c.95-2.39,3.93-3.86,4-6.5Z"/></g></svg>