<?xml version="1.0" encoding="UTF-8"?><svg id="Layer_2" xmlns="http://www.w3.org/2000/svg" xmlns:xlink="http://www.w3.org/1999/xlink" viewBox="0 0 685.06 634.81"><defs><style>.cls-1{fill:url(#linear-gradient-2);}.cls-2{fill:url(#linear-gradient);}</style><linearGradient id="linear-gradient" x1="336.97" y1="634.81" x2="336.97" y2="63.59" gradientUnits="userSpaceOnUse"><stop offset="0" stop-color="#fdb515"/><stop offset=".3" stop-color="#f0d50b"/><stop offset=".73" stop-color="#e1ff00"/></linearGradient><linearGradient id="linear-gradient-2" x1="342.53" y1="435.26" x2="342.53" y2="0" xlink:href="#linear-gradient"/></defs><g id="Layer_4"><path class="cls-2" d="M536.77,448.43c-1.52-3.92-3.21-7.74-5.04-11.45l50.14-50.14c4.75,1.89,9.93,2.94,15.36,2.94,22.97,0,41.58-18.62,41.58-41.58s-18.62-41.58-41.58-41.58-41.58,18.62-41.58,41.58c0,8.32,2.45,16.06,6.66,22.56-13.87,13.88-32.5,32.52-44.2,44.21-16.57-21.79-39.21-37.67-64.68-45.15l28.08-28.08c9.23-9.23,14.31-21.49,14.31-34.54v-51.42c16.11-5.73,27.64-21.11,27.64-39.18,0-22.97-18.62-41.58-41.58-41.58s-41.58,18.62-41.58,41.58c0,19.06,12.83,35.12,30.33,40.03v50.57c0,6.32-2.46,12.25-6.93,16.72l-32.36,32.36c-5.62-51.17-31.88-86.92-66.35-107.28v-103.38c18.33-4.34,31.98-20.8,31.98-40.46,0-22.97-18.62-41.58-41.58-41.58s-41.58,18.62-41.58,41.58c0,17.45,10.75,32.38,25.99,38.55v93.58c-16.16-5.67-33.29-8.51-50.42-8.51-26.25,0-52.48,6.67-75.16,19.98-1.7-3.3-2.61-6.99-2.61-10.81v-68.92c18.39-4.29,32.1-20.78,32.1-40.48,0-22.97-18.62-41.58-41.58-41.58s-41.58,18.62-41.58,41.58c0,17.4,10.7,32.3,25.87,38.5v70.91c0,9.2,2.54,18,7.26,25.63-26.01,22.81-44.11,56.82-46.51,102.02-8.98.86-17.4,2.53-25.29,4.88l-13.65-13.6c-4.48-4.47-6.96-10.42-6.96-16.75v-58.6c16.42-5.56,28.24-21.09,28.24-39.38,0-22.97-18.62-41.58-41.58-41.58s-41.58,18.62-41.58,41.58c0,18.84,12.54,34.75,29.72,39.86v58.13c0,12.89,5.24,25.5,14.37,34.6l6.48,6.45c-101.11,58.34-76.46,253.65,62.1,253.63,1.88-.12,45.42-.16,101.83-.16,106.93,0,260.05.14,262.93.14l6.53-1.1c95.56-16.03,100.16-161.95,6.49-185.26ZM581.44,543.48c-.64,16.48-6.01,32.1-15.12,43.99-9.81,12.8-23.21,20.7-39.87,23.5l-4.62.78c-1.62,0-4.22,0-7.68,0-107.14-.09-192.37-.13-253.33-.13-83.17,0-98.48.08-102.06.15-15.46-.03-29.66-2.96-42.21-8.73-11.53-5.3-21.73-13-30.31-22.89-16.61-19.14-26.53-45.54-27.91-74.34-1.4-29.17,6.09-56.9,21.1-78.06,7.73-10.91,17.28-19.75,28.37-26.26,12.09-7.1,26.07-11.46,41.55-12.94l19.75-1.9,1.05-19.81c1.91-35.97,15.48-65.84,39.23-86.4,21.32-18.45,49.73-28.61,79.99-28.61s58.69,10.16,80.08,28.6c23.85,20.57,37.57,50.5,39.69,86.56l1.15,19.57,19.51,2c18.38,1.88,36.04,9.15,51.06,21.02,15.27,12.07,27.18,28.37,34.44,47.16l4.31,11.17,11.62,2.89c16.49,4.1,29.39,13.17,38.34,26.96,8.32,12.82,12.55,29.07,11.9,45.74Z"/><path class="cls-1" d="M658.86,285.85c-4.75-4.46-11.99-10.79-20.95-18.6-6.98-6.06-13.88-11.99-18.48-15.94-6.07-5.34-13.94-8.28-22.19-8.28s-16.31,3-22.42,8.47c-3.11,2.66-7.1,6.1-11.4,9.81-1.95,1.68-4.79-.55-3.61-2.83,6.71-12.94,10.22-27.47,9.97-42.2-.4-23.15-9.77-44.45-26.41-59.98-8.23-7.68-28.31-24.99-39.54-34.63-6.06-5.2-13.8-8.06-21.78-8.06-.05,0-.11,0-.16,0-.49,0-.98,0-1.47.02-7.74.29-15.11,3.43-20.99,8.47-6.76,5.8-16.48,14.16-24.93,21.57-.02.02-.06,0-.04-.04,6.3-12.63,9.6-26.71,9.36-40.98-.4-23.15-9.77-44.45-26.41-59.98-8.23-7.69-28.31-25-39.55-34.63C371.79,2.86,364.05,0,356.06,0c-.05,0-.11,0-.16,0-.05,0-.11,0-.16,0-7.99,0-15.72,2.86-21.78,8.06-11.23,9.63-31.31,26.94-39.55,34.63-9.97,9.32-17.32,20.72-21.7,33.33,0,.02-.04.03-.05,0-2.73-3.53-5.74-6.87-9.06-9.97-8.23-7.69-28.31-24.99-39.55-34.63-6.06-5.2-13.8-8.06-21.78-8.06-.05,0-.11,0-.16,0-.05,0-.11,0-.16,0-7.99,0-15.72,2.86-21.78,8.06-11.24,9.63-31.32,26.94-39.55,34.63-16.63,15.53-26.01,36.84-26.41,59.98-.15,8.69,1.02,17.31,3.38,25.58,0,.03-.03.05-.05.03-2.81-2.42-5.43-4.67-7.69-6.61-6.06-5.2-13.8-8.06-21.78-8.06-.05,0-.11,0-.16,0-.05,0-.11,0-.16,0-7.99,0-15.72,2.86-21.78,8.06-11.24,9.63-31.32,26.94-39.55,34.63C9.79,195.19.41,216.5.01,239.64c-.41,23.8,9.02,47.11,25.87,63.96,10.49,10.49,23.51,18.16,37.52,22.28.02,0,.04,0,.04-.03v-22.78s0-.02-.02-.03c-.94-.38-1.88-.79-2.8-1.22-.26-.12-.51-.24-.77-.37-.68-.32-1.36-.66-2.04-1.01-.29-.15-.58-.3-.86-.45-.67-.36-1.34-.73-2-1.12-.24-.14-.49-.28-.73-.42-.89-.53-1.78-1.08-2.65-1.65,0,0-.01-.01-.02-.02-.85-.56-1.68-1.14-2.5-1.74-.25-.18-.5-.38-.75-.56-.58-.43-1.15-.88-1.72-1.33-.28-.22-.55-.45-.83-.67-.56-.46-1.1-.93-1.64-1.41-.24-.21-.48-.42-.72-.64-.76-.69-1.51-1.4-2.23-2.12h0c-.8-.8-1.58-1.62-2.33-2.45-3.01-3.33-5.64-6.91-7.87-10.67-1.11-1.88-2.13-3.8-3.05-5.76-.92-1.96-1.74-3.96-2.46-5.98-.36-1.01-.69-2.03-1-3.06-1.86-6.15-2.81-12.51-2.85-18.85,0-1.06.01-2.11.06-3.17.13-3.17.5-6.32,1.09-9.43,2.38-12.45,8.47-24.22,18.41-33.51,1.74-1.63,4.05-3.72,6.72-6.09,1.9-1.7,3.99-3.54,6.18-5.45.87-.77,1.76-1.55,2.67-2.33,3.61-3.15,7.39-6.43,11.02-9.57,1.82-1.57,3.59-3.1,5.29-4.57.43-.37.85-.73,1.26-1.08,2.07-1.78,4.01-3.44,5.73-4.92.01-.01.03-.02.04-.03.27-.23.54-.44.83-.64.1-.07.2-.13.3-.19.2-.13.4-.27.61-.39.12-.07.25-.13.37-.19.19-.1.38-.21.58-.3.13-.06.27-.11.41-.17.19-.08.38-.16.57-.23.14-.05.29-.09.44-.14.19-.06.38-.12.57-.17.15-.04.3-.07.46-.1.19-.04.38-.09.57-.12.16-.03.31-.04.47-.06.19-.02.37-.05.56-.07.16-.01.32-.01.48-.02.16,0,.32-.02.48-.02.05,0,.11,0,.16,0,.05,0,.11,0,.16,0,.16,0,.32.01.48.02.16,0,.32,0,.48.02.19.02.37.04.56.07.16.02.32.04.48.06.19.03.37.08.55.12.16.03.31.06.47.1.19.05.37.11.55.17.15.05.3.09.45.14.19.07.37.15.55.23.14.06.29.11.43.18.19.09.37.19.56.29.13.07.26.13.39.2.2.12.4.25.6.38.1.07.21.13.31.2.28.2.56.42.83.64.01.01.03.02.04.03,1.72,1.47,3.65,3.13,5.73,4.92.41.36.83.72,1.26,1.08,1.7,1.46,3.48,3,5.29,4.57,3.63,3.14,7.41,6.42,11.02,9.57.9.79,1.79,1.57,2.67,2.33,2.19,1.92,4.27,3.76,6.18,5.45,2.67,2.37,4.98,4.47,6.72,6.09.83.77,1.63,1.56,2.41,2.37.07.07.13.15.2.22,1.33,1.4,2.57,2.84,3.74,4.33,19.13,24.32,17.21,60.02-4.02,83.5-.75.83-1.53,1.65-2.33,2.45h0c-.7.7-1.42,1.38-2.15,2.05-.21.2-.43.38-.65.57-.53.47-1.07.94-1.62,1.4-.24.2-.48.39-.73.59-.56.45-1.12.89-1.69,1.32-.22.17-.44.33-.66.5-.64.48-1.3.94-1.96,1.39-.15.1-.3.21-.45.31-3.44,2.32-7.1,4.31-10.89,5.96-.01,0-.02.02-.02.03v22.97s.02.03.04.03c13.45-4.21,25.92-11.71,36.04-21.84,12.04-12.04,20.29-27.37,23.87-43.83,0,0,0,0,0,0v-72.02s0-.02-.02-.03c-1.68-.81-3.34-1.68-4.95-2.63l-.41-.24c-.22-.13-1.85-1.15-2.06-1.28,0,0,0,0,0,0-.71-.46-1.42-.94-2.12-1.43-.08-.06-.17-.12-.25-.17-.65-.46-1.29-.93-1.92-1.41-.12-.09-.25-.18-.37-.28-.59-.45-1.17-.92-1.74-1.4-.15-.13-.31-.25-.46-.38-.55-.46-1.09-.94-1.63-1.43-.16-.14-.33-.28-.48-.43-.68-.63-1.35-1.27-2.01-1.92h0c-25.65-25.65-26.51-68.12,0-92.88,7.96-7.43,27.87-24.59,38.86-34.01.28-.24.57-.47.87-.68.1-.07.21-.13.31-.2.2-.13.4-.27.6-.39.12-.07.25-.13.38-.2.19-.1.38-.2.57-.29.14-.06.27-.11.41-.17.19-.08.38-.16.57-.23.14-.05.29-.09.44-.14.19-.06.38-.12.57-.17.15-.04.3-.07.45-.1.19-.04.38-.09.57-.12.16-.03.31-.04.47-.06.19-.02.37-.05.56-.07.16-.01.32-.01.49-.02.16,0,.32-.02.47-.02.05,0,.11,0,.16,0,.05,0,.11,0,.16,0,.16,0,.32.01.47.02.16,0,.32,0,.49.02.19.01.37.04.55.07.16.02.32.04.48.06.19.03.37.08.56.12.16.03.31.06.47.1.19.05.37.11.55.17.15.05.3.09.45.14.19.07.37.15.55.22.14.06.29.11.43.18.19.09.37.19.55.29.13.07.26.13.39.21.2.12.4.25.6.38.1.07.21.13.31.2.3.21.59.44.87.68,10.99,9.42,30.9,26.58,38.86,34.01.83.77,1.63,1.56,2.41,2.37,16.28,16.95,20.8,41.07,14.3,62.59-.31,1.02-.64,2.04-1,3.06-1.8,5.06-4.22,9.95-7.25,14.53-2.43,3.66-5.25,7.13-8.45,10.34h0c-.78.78-1.59,1.53-2.4,2.27-.23.21-.47.42-.7.62-.67.59-1.36,1.17-2.06,1.73-.18.15-.36.3-.55.45-.87.69-1.76,1.36-2.66,2.01-.1.07-.2.13-.3.2-.82.58-1.65,1.13-2.5,1.68-.45.29-.9.56-1.35.85-.63.39-1.28.75-1.92,1.12-.11.06-.22.13-.33.19-1,.56-2.02,1.09-3.04,1.6-.09.04-.18.09-.27.13-.9.42-1.79.85-2.7,1.24-.25.11-.51.22-.76.32-1.03.43-2.06.84-3.1,1.22-.01,0-.02.02-.02.03v22.54s.02.03.04.03c14.92-3.92,28.81-11.86,39.9-22.94,6.35-6.35,11.64-13.61,15.75-21.47,2.73-5.23,9.74-6.18,13.91-2,.03.03.06.06.1.1,9.42,9.42,20.88,16.56,33.26,20.91.02,0,.04,0,.04-.03v-23.32s0-.02-.02-.03c-2.48-1.21-4.89-2.57-7.2-4.07,0,0-.02-.01-.03-.02-.74-.48-1.46-.97-2.18-1.48-.04-.03-.09-.06-.13-.09-.67-.48-1.33-.97-1.99-1.47-.08-.07-.17-.13-.26-.19-.61-.47-1.2-.95-1.79-1.44-.12-.1-.25-.2-.38-.31-.56-.48-1.11-.97-1.66-1.46-.14-.12-.28-.24-.42-.37-.68-.62-1.34-1.25-1.99-1.9h0c-4.01-4.01-7.41-8.43-10.2-13.12-1.11-1.88-2.13-3.8-3.05-5.76-4.13-8.82-6.25-18.37-6.31-27.89-.03-4.23.35-8.45,1.15-12.6.4-2.07.9-4.13,1.5-6.16,1.21-4.06,2.83-8.01,4.87-11.78.51-.94,1.05-1.88,1.61-2.8,1.13-1.84,2.36-3.63,3.7-5.37,2.01-2.6,4.25-5.08,6.74-7.4.25-.23.51-.47.78-.72.54-.5,1.13-1.04,1.76-1.61.94-.85,1.97-1.78,3.06-2.76,1.46-1.31,3.05-2.72,4.73-4.19.42-.37.84-.74,1.27-1.12,9-7.91,20.05-17.43,27.26-23.61.04-.03.08-.06.13-.1.24-.2.49-.4.74-.58.1-.07.22-.14.32-.21.19-.13.39-.26.59-.38.12-.07.25-.13.38-.2.19-.1.38-.2.57-.29.13-.06.27-.11.41-.17.19-.08.38-.16.57-.23.14-.05.29-.09.43-.14.19-.06.38-.12.57-.17.15-.04.3-.07.45-.1.19-.04.38-.09.57-.12.16-.03.31-.04.47-.06.19-.02.38-.05.57-.07.16-.01.32-.01.48-.02.16,0,.32-.02.48-.02.05,0,.11,0,.16,0,.05,0,.11,0,.16,0,.16,0,.32.01.48.02.16,0,.32,0,.48.02.19.02.37.04.56.07.16.02.32.04.47.06.19.03.37.08.56.12.15.03.31.06.46.1.19.05.37.11.56.17.15.05.3.09.45.14.19.07.37.15.56.23.14.06.28.11.42.17.19.09.37.19.56.29.13.07.26.13.39.2.2.12.4.25.6.38.1.07.21.13.31.2.3.21.59.44.87.68,5.15,4.42,12.26,10.53,19.19,16.55,2.77,2.41,5.51,4.8,8.08,7.06.43.38.85.75,1.27,1.12,1.67,1.48,3.26,2.88,4.73,4.19,1.1.98,2.12,1.91,3.06,2.76.63.57,1.21,1.11,1.76,1.61.27.25.53.49.78.72,2.49,2.32,4.73,4.8,6.74,7.4,1.34,1.74,2.57,3.53,3.7,5.37.56.92,1.1,1.85,1.61,2.8,2.04,3.77,3.66,7.72,4.87,11.78.6,2.03,1.1,4.08,1.5,6.16.79,4.15,1.17,8.37,1.15,12.6-.06,9.52-2.18,19.07-6.31,27.89-.92,1.96-1.93,3.88-3.05,5.76-2.79,4.7-6.19,9.12-10.2,13.12h0c-.79.79-1.61,1.55-2.43,2.3-.14.13-.29.26-.44.39-.72.64-1.45,1.27-2.2,1.87-.23.19-.46.38-.69.56-.88.69-1.77,1.37-2.69,2.02-.18.12-.36.24-.53.37-.73.52-1.97,1.33-2.73,1.81-.1.06-.2.12-.3.19-.91.56-1.83,1.11-2.76,1.63-.05.03-.09.06-.14.08-1.01.56-2.04,1.09-3.07,1.59-.2.1-.39.19-.59.28-.88.42-1.78.82-2.68,1.21-.18.08-.36.16-.55.23-1.07.44-2.15.86-3.24,1.25-.01,0-.02.02-.02.03v22.51s.02.03.04.03c2.94-.76,5.83-1.67,8.67-2.73,6-2.24,11.91,3.29,10.33,9.5-1.63,6.38-2.53,13.02-2.64,19.83-.41,23.8,9.02,47.11,25.87,63.96,10.65,10.64,23.88,18.38,38.12,22.45.02,0,.04,0,.04-.03v-22.72s0-.02-.02-.03c-2.08-.82-4.11-1.74-6.1-2.76-.09-.05-.18-.1-.27-.14-.84-.44-1.68-.89-2.5-1.37-.19-.11-.37-.21-.56-.32-.91-.53-1.81-1.08-2.69-1.66-.02-.01-.04-.03-.06-.04-.92-.6-1.83-1.23-2.72-1.88-.14-.1-.28-.21-.42-.32-.7-.52-1.39-1.05-2.07-1.59-.25-.2-.49-.4-.73-.59-.55-.46-1.1-.92-1.64-1.39-.27-.24-.54-.47-.81-.71-.78-.71-1.54-1.42-2.28-2.17h0c-25.65-25.65-26.51-68.12,0-92.88,4.97-4.65,14.62-13.09,23.83-21.07,2.76-2.39,5.49-4.75,8.04-6.94.85-.73,1.68-1.45,2.49-2.14,1.61-1.39,3.12-2.68,4.5-3.86.28-.24.57-.47.87-.68.09-.07.19-.12.29-.19.21-.14.41-.28.62-.4.12-.07.25-.13.37-.19.19-.1.38-.21.58-.3.13-.06.27-.11.41-.17.19-.08.38-.16.57-.23.14-.05.29-.09.43-.14.19-.06.38-.12.57-.17.15-.04.3-.07.45-.1.19-.04.38-.09.57-.12.16-.03.31-.04.47-.06.19-.02.38-.05.57-.07.16-.01.32-.01.48-.02.16,0,.32-.02.48-.02.05,0,.11,0,.16,0,.05,0,.11,0,.16,0,.16,0,.32.01.48.02.16,0,.32,0,.48.02.19.02.37.04.56.07.16.02.32.04.48.06.19.03.37.08.56.12.15.03.31.06.46.1.19.05.37.11.56.17.15.05.3.09.45.14.19.07.37.15.56.23.14.06.28.11.42.17.2.09.39.2.58.3.12.07.25.12.37.19.22.13.43.27.64.41.09.06.18.11.27.17.3.21.59.44.87.68,7.9,6.77,20.41,17.54,29.77,25.82,3.67,3.24,6.85,6.1,9.09,8.19,3.31,3.09,6.2,6.47,8.66,10.05,1.23,1.79,2.36,3.63,3.38,5.52.51.94.99,1.9,1.45,2.86,1.83,3.86,3.25,7.87,4.25,11.98,1,4.11,1.59,8.31,1.76,12.53.04,1.06.06,2.11.06,3.17-.03,4.23-.46,8.47-1.3,12.64-2.51,12.53-8.64,24.51-18.26,34.13h0c-.69.69-1.39,1.35-2.11,2.01-.22.2-.45.4-.67.59-.51.45-1.01.9-1.53,1.33-.26.22-.53.43-.79.65-.5.41-1,.81-1.52,1.2-.27.2-.54.41-.81.61-.53.39-1.07.78-1.62,1.16-.25.18-.51.35-.76.52-.6.4-1.21.8-1.82,1.18-.21.13-.41.26-.62.39-.74.45-1.49.89-2.24,1.32-.09.05-.17.1-.26.15-1.77.99-3.59,1.9-5.44,2.72,0,0,0,0,0,0v23.06s.02.03.04.03c4.97-1.6,9.8-3.64,14.43-6.11,1.45-.77,2.95.95,2,2.29-11.77,16.46-17.15,36.9-15.16,57.55,1.29,13.32,5.6,26.11,12.45,37.4.01.02.03.02.05,0l15.83-15.83s.01-.02,0-.03c-.96-1.91-1.82-3.86-2.59-5.84-.04-.1-.08-.21-.12-.31-.23-.61-.46-1.23-.68-1.85-.02-.05-.03-.09-.05-.14-.68-2.01-1.28-4.06-1.8-6.12-.02-.08-.04-.16-.06-.23-.14-.6-.28-1.2-.4-1.8-.04-.19-.08-.37-.11-.56-.12-.6-.24-1.2-.34-1.8-.04-.25-.06-.5-.24-.73-.51-.64-.61-1.47-.37-2.26.15-.49.05-.95,0-1.42-.06-.55-.1-1.09-.15-1.64-.02-.28-.04-.56-.06-.83-.04-.52-.07-1.04-.09-1.57-.01-.3-.02-.59-.03-.89-.03-.93-.05-1.87-.03-2.81,0-.3,0-.6.01-.91.01-.46.04-.92.06-1.37.02-.38.04-.76.06-1.14.03-.44.06-.88.1-1.32.04-.41.08-.83.12-1.24.04-.41.08-.82.13-1.23.08-.62.17-1.24.26-1.86.07-.45.15-.9.23-1.35.09-.52.19-1.04.29-1.56.07-.36.15-.72.23-1.07.11-.49.22-.98.34-1.46.08-.34.17-.68.25-1.01.16-.59.32-1.18.5-1.77.06-.22.12-.44.19-.66.24-.78.5-1.56.77-2.34.09-.27.2-.54.3-.81.2-.54.4-1.09.62-1.63.11-.29.23-.58.35-.86.24-.57.48-1.13.74-1.69.1-.22.2-.45.3-.67.36-.77.73-1.54,1.12-2.29.09-.17.19-.34.28-.52.32-.6.64-1.19.98-1.78.14-.25.29-.5.43-.74.32-.54.64-1.07.98-1.59.14-.23.28-.45.43-.68.48-.73.97-1.46,1.48-2.18.91-1.28,1.84-2.48,2.8-3.62s1.96-2.23,2.99-3.29c2.06-2.12,4.27-4.14,6.67-6.26,9.34-8.39,24.82-21.72,34.14-29.72.28-.26.57-.49.86-.72.09-.07.19-.13.29-.2.21-.15.42-.3.63-.43.13-.08.26-.14.39-.21.19-.11.39-.22.58-.32.15-.07.3-.13.45-.19.19-.08.38-.17.57-.24.16-.06.32-.1.48-.15.19-.06.38-.13.57-.18.16-.04.33-.08.5-.11.19-.04.39-.09.58-.13.17-.03.34-.05.51-.07.2-.03.39-.06.59-.08.17-.02.34-.02.52-.03.2,0,.39-.02.59-.03.01,0,.03,0,.04,0,.18,0,.36.02.54.02.17,0,.34,0,.51.02.19.02.39.05.58.07.17.02.34.04.5.06.19.03.39.08.58.12.16.04.33.06.49.11.19.05.38.12.57.18.16.05.32.09.47.15.19.07.37.15.56.23.15.06.3.12.45.19.19.09.38.2.57.3.13.07.27.14.4.21.21.12.4.26.6.39.11.07.22.13.32.21.3.22.59.45.86.7,4.38,3.75,10.13,8.7,15.97,13.76.83.72,1.67,1.45,2.51,2.18.51.45,1.02.89,1.53,1.33,3,2.62,5.91,5.15,8.59,7.51.06.05.11.1.17.15,1.53,1.35,2.99,2.64,4.35,3.86,2.21,1.98,4.17,3.76,5.78,5.27,2.51,2.32,4.77,4.81,6.79,7.44,4.02,5.25,7.05,11.04,9.13,17.13,1.04,3.04,1.83,6.16,2.4,9.31.37,2.1.64,4.23.81,6.36.17,2.13.23,4.27.19,6.41-.02,1.07-.06,2.14-.13,3.21-.14,2.14-.38,4.27-.72,6.38-.17,1.06-.36,2.11-.58,3.16-.44,2.1-.98,4.18-1.61,6.23-.64,2.05-1.37,4.07-2.2,6.05-.83,1.98-1.76,3.93-2.78,5.82-3.07,5.69-6.99,10.95-11.73,15.52-.86.85-1.74,1.67-2.64,2.46-.29.26-.59.5-.88.75-.62.53-1.23,1.05-1.86,1.55-.35.28-.71.55-1.06.82-.59.45-1.19.9-1.79,1.33-.37.27-.75.53-1.12.78-.62.42-1.24.83-1.87,1.22-.37.23-.73.47-1.1.69-.7.42-1.4.82-2.11,1.22-.31.17-.61.35-.92.52-1.02.55-2.06,1.07-3.1,1.56-.09.04-.19.08-.28.12-.96.44-1.92.86-2.9,1.25-.35.14-.71.27-1.06.41-.72.28-1.45.55-2.19.8-.41.14-.83.27-1.24.4-.69.22-1.39.43-2.09.63-.43.12-.86.24-1.29.35-.71.19-1.43.35-2.15.52-.42.09-.83.19-1.25.27-.81.16-1.62.31-2.43.44-.33.05-.66.12-.99.17-1.15.17-2.3.31-3.46.42-.19.02-.39.02-.58.04-.97.08-1.94.15-2.92.19-.4.02-.81.02-1.21.03-.54.01-1.08.04-1.63.04-.3,0-.6-.01-.9-.01-.21,0-.42,0-.64-.01-1.1-.02-2.2-.07-3.3-.15-.19-.01-.37-.03-.56-.04-1.16-.09-2.31-.2-3.48-.35-.99-.08-1.98-.2-2.97-.34-.26-.04-.52-.09-.77-.13-.76-.12-1.51-.26-2.27-.41-.37-.08-.73-.16-1.1-.24-.7-.15-1.4-.34-2.09-.53-.16-.04-.31-.08-.47-.13-.97-.27-1.93-.57-2.89-.89-.01,0-.02,0-.03,0l-16.49,16.49s-.01.04,0,.05c8.68,4.19,17.81,6.82,26.83,7.61,3.7.45,7.44.69,11.12.69,23.01,0,44.74-8.92,61.21-25.13,16.97-16.42,26.54-39.73,26.28-63.99-.26-23.48-9.56-44.89-26.2-60.29Z"/></g></svg>