<?xml version="1.0" encoding="UTF-8"?><svg id="Layer_2" xmlns="http://www.w3.org/2000/svg" xmlns:xlink="http://www.w3.org/1999/xlink" viewBox="0 0 540.3 443.77"><defs><style>.cls-1{fill:url(#linear-gradient);}</style><linearGradient id="linear-gradient" x1="270.15" y1="549.77" x2="270.15" y2="106" gradientUnits="userSpaceOnUse"><stop offset="0" stop-color="#fdb515"/><stop offset=".41" stop-color="#f0d50b"/><stop offset="1" stop-color="#e1ff00"/></linearGradient></defs><g id="Layer_1-2"><path class="cls-1" d="M311.81,337.08c-.74-9.01-2.99-17.59-6.5-25.5l60.14-60.14c25.72,6.38,47.41,22.97,60.53,45.21l-40.42,40.42h-73.74ZM226.04,264.73v-35.97l47.7-47.7v-33.7c-37.47-14.19-82.64-8.98-114.61,14.94v98.71l22.4,22.4c12.21-10.43,27.6-17.22,44.51-18.68ZM348.06,195.94h0c8.57,8.57,20.01,14.3,31.83,15.88v-.18c.1.01.21.02.31.04v-28.16c-19.87-5.3-28.17-33.79-9.17-48.15,4.31-3.26,9.47-5.3,14.87-5.6.51-.03,1.01-.02,1.51-.02.5,0,1-.01,1.51.02,5.39.3,10.56,2.35,14.87,5.6,18.99,14.36,10.7,42.85-9.17,48.15v28.16c.1-.01.21-.02.31-.04v.18c11.83-1.58,23.26-7.31,31.83-15.88h0c21.59-21.59,22.31-57.34,0-78.18-6.7-6.26-23.46-20.7-32.71-28.63-1.91-1.64-4.28-2.43-6.64-2.4-2.36-.03-4.73.77-6.64,2.4-9.25,7.93-26.01,22.37-32.71,28.63-22.31,20.84-21.59,56.59,0,78.18ZM154.16,335.12c1.67-15.6,7.89-29.85,17.3-41.41l-26.73-26.73v-91.59c-16.17,17.85-26.47,42.28-26.46,73.18,0,0,0,0-.01,0-20.51,0-39.54,6.33-55.25,17.14v26.12l43.61,43.29h47.54ZM297.97,298.55l49.78-49.78c-1.85-.11-3.7-.19-5.58-.19-1.1-46.24-23.44-77.53-53.6-94.34v31.4h-.43v1.39l-47.7,47.7v30.06c23.81,2.26,44.57,15.11,57.54,33.77ZM523.84,209.01c-6.7-6.26-23.46-20.7-32.71-28.63-1.91-1.64-4.28-2.43-6.64-2.4-2.36-.03-4.73.77-6.64,2.4-9.25,7.93-26.01,22.37-32.71,28.63-20.62,19.26-21.55,51.23-4.54,73.02l20.39-20.39c-5.99-10.97-4.98-25.86,7.12-35.02,4.31-3.26,9.47-5.3,14.87-5.6.51-.03,1.01-.02,1.51-.02.5,0,1-.01,1.51.02,5.39.3,10.56,2.35,14.87,5.6,21.16,16,8.47,49.53-16.37,49.02-5.1.11-9.68-1.24-13.57-3.56l-20.07,20.07c7.65,5.81,16.76,9.67,26.13,10.92v-.18c2.49.33,5,.48,7.51.47,2.51.01,5.02-.14,7.51-.47v.18c11.83-1.58,23.26-7.31,31.83-15.88h0c21.59-21.59,22.31-57.34,0-78.18ZM433.9,313.64c-.39-1.11-.81-2.21-1.24-3.31l-41.14,41.14h-79.81c-3.96,39.99-37.79,71.33-78.81,71.33s-75.92-32.37-78.96-73.3h-53.26l-52.07-51.7v-20.02c-17.63,17.96-28.37,42.69-27.94,69.94.83,52.83,46.02,96.03,98.86,96.03h280s.05,0,.08,0c.03,0,.05,0,.08,0,.18,0,.35-.01.53-.01h23.84c.18,0,.35.01.53.01s.34-.01.51-.01h.66v-.02c35.58-.63,64.23-29.65,64.23-65.37,0-32.95-24.37-60.2-56.07-64.73ZM242.03,109.21c8.54,8.54,19.93,14.25,31.71,15.86v-28.41c-19.56-5.6-27.59-33.77-8.74-48.02,4.31-3.26,9.47-5.3,14.87-5.6.51-.03,1.01-.02,1.51-.02.5,0,1-.01,1.51.02,5.39.3,10.56,2.35,14.87,5.6,18.99,14.36,10.7,42.85-9.17,48.15v28.16c.1-.01.21-.02.31-.04v.18c11.83-1.58,23.26-7.31,31.83-15.88h0c21.59-21.59,22.31-57.34,0-78.18-6.7-6.26-23.46-20.7-32.71-28.63-1.91-1.64-4.28-2.43-6.64-2.4-2.36-.03-4.73.77-6.64,2.4-9.25,7.93-26.01,22.37-32.71,28.63-22.31,20.84-21.59,56.59,0,78.18h0ZM48.3,240.38v-.18c.1.01.21.02.31.04v-28.15c-19.87-5.3-28.17-33.79-9.17-48.15,4.31-3.26,9.47-5.3,14.87-5.6.51-.03,1.01-.02,1.51-.02.5,0,1-.01,1.51.02,5.39.3,10.56,2.35,14.87,5.6,18.99,14.36,10.7,42.85-9.17,48.15v28.16c.1-.01.21-.02.31-.04v.18c11.83-1.58,23.26-7.31,31.83-15.88h0c21.59-21.59,22.31-57.34,0-78.18-6.7-6.26-23.46-20.7-32.71-28.63-1.91-1.64-4.28-2.43-6.64-2.4-2.36-.03-4.73.77-6.64,2.4-9.25,7.93-26.01,22.37-32.71,28.63-22.31,20.84-21.59,56.59,0,78.18h0c8.57,8.57,20.01,14.3,31.83,15.88ZM112.59,128.88c8.57,8.57,20.01,14.3,31.83,15.88v-.18c.1.01.21.02.31.04v-28.16c-19.87-5.3-28.17-33.79-9.17-48.15,4.31-3.26,9.47-5.3,14.87-5.6.51-.03,1.01-.02,1.51-.02.5,0,1-.01,1.51.02,5.39.3,10.56,2.35,14.87,5.6,18.99,14.36,10.7,42.85-9.17,48.15v28.16c.1-.01.21-.02.31-.04v.18c11.83-1.58,23.26-7.31,31.83-15.88h0c21.59-21.59,22.31-57.34,0-78.18-6.7-6.26-23.46-20.7-32.71-28.63-1.91-1.64-4.28-2.43-6.64-2.4-2.36-.03-4.73.77-6.64,2.4-9.25,7.93-26.01,22.37-32.71,28.63-22.31,20.84-21.59,56.59,0,78.18h0ZM237.13,278.95c-39.06-2.5-71.4,29.84-68.9,68.9,2.06,32.29,28.14,58.36,60.43,60.43,39.06,2.5,71.4-29.84,68.9-68.9-2.06-32.29-28.14-58.36-60.43-60.43Z"/></g></svg>