<?xml version="1.0" encoding="UTF-8"?><svg id="Layer_2" xmlns="http://www.w3.org/2000/svg" xmlns:xlink="http://www.w3.org/1999/xlink" viewBox="0 0 466.32 435.16"><defs><style>.cls-1{fill:url(#linear-gradient);}</style><linearGradient id="linear-gradient" x1="233.16" y1="0" x2="233.16" y2="435.16" gradientUnits="userSpaceOnUse"><stop offset="0" stop-color="#e1ff00"/><stop offset=".59" stop-color="#f0d50b"/><stop offset="1" stop-color="#fdb515"/></linearGradient></defs><g id="Layer_1-2"><path class="cls-1" d="M301.42,162.36c-16.48-21.76-15.35-53.3,5.05-72.36,9.48-8.85,39.09-34.09,39.09-34.09,0,0,29.61,25.24,39.09,34.09,22.31,20.84,21.59,56.59,0,78.18h0c-19.98,19.98-51.45,21.45-73.14,4.45l19.01-18.58c4.43,2.6,9.99,3.99,16.66,3.54,33.02-2.24,33.17-51.71,1.07-55.21-1.63-.18-4.93-.18-6.56,0-22.09,2.41-28.78,25.52-20.96,41.09l-19.32,18.88ZM82.75,168.18c19.91,19.91,51.21,21.44,72.9,4.63l-19.38-18.81c-4.45,2.63-10.03,4.05-16.74,3.59-33.02-2.24-33.17-51.71-1.07-55.21,1.63-.18,4.93-.18,6.56,0,22.04,2.4,28.76,25.43,21,41l19.79,19.2c16.67-21.77,15.61-53.46-4.87-72.59-9.48-8.85-39.09-34.09-39.09-34.09,0,0-29.61,25.24-39.09,34.09-22.31,20.84-21.59,56.59,0,78.18h0ZM81.83,237.84c-3.59,10.89-13.82,18.75-25.9,18.75-15.06,0-27.27-12.23-27.27-27.31s12.21-27.31,27.27-27.31c13.07,0,23.98,9.2,26.65,21.49l28.31,1.48c-1.09-12.46-6.44-24.5-16.25-33.66-9.48-8.85-39.09-34.09-39.09-34.09,0,0-29.61,25.24-39.09,34.09-22.31,20.84-21.59,56.59,0,78.18h0c21.59,21.59,56.59,21.59,78.18,0h0c8.45-8.45,13.69-19.08,15.62-30.13l-28.43-1.49ZM194.26,112.26c9.06,9.06,20.48,14.3,32.27,15.76v-28.34c-11.87-3.15-21.78-13.88-20.31-29.67,1.09-11.71,12.09-22.78,23.77-24.03,1.67-.18,5.27-.2,6.92,0,18.7,2.24,29.44,23.7,20.54,40.26-3.95,7.34-9.97,11.69-16.51,13.46v28.22c11.52-1.59,22.64-6.8,31.5-15.66h0c21.59-21.59,22.31-57.34,0-78.18C262.96,25.24,233.35,0,233.35,0c0,0-29.61,25.24-39.09,34.09-22.31,20.84-21.59,56.59,0,78.18h0ZM262.07,253.87c10.61-19.73-2.19-45.31-24.48-47.98-1.96-.24-6.25-.21-8.24,0-13.92,1.49-27.03,14.68-28.32,28.63-3.39,36.54,44.35,50.38,61.04,19.35ZM226.54,194.39v-35.89c-18.39,1.25-32.7,8.32-44.71,19.65l25.38,24.63c5.76-4.35,12.43-7.37,19.33-8.39ZM240.94,158.67v35.82c6.99,1.15,13.52,4.03,19.11,8.3l24.78-24.22c-11.32-11.01-25.06-18.24-43.89-19.9ZM197.1,213.04l-24.98-24.25c-3.86,4.84-7.5,10.15-10.99,15.88-4.4,7.22-8.9,14.65-13.42,22.19l41.93,2.19c1.29-5.69,3.9-11.15,7.46-16.01ZM295.14,387.72c44.03,2.99,47.52-61.32,6.54-65.78-1.94-.22-5.88-.22-7.82,0-38.25,4.16-38.06,63.11,1.28,65.78ZM165.8,321.94c-40.98,4.46-37.5,68.78,6.54,65.78,39.34-2.67,39.53-61.62,1.28-65.78-1.94-.21-5.88-.21-7.82,0ZM327.89,243.05l-50.16,1.45c-.64,5.43-2.27,10.73-4.91,15.63-3.18,5.92-7.14,10.58-11.57,14.15l20.49,37.86c3.27-1.15,6.83-1.98,10.7-2.41,2.77-.3,7.81-.3,10.58,0h0c28.44,3.1,41.33,27.23,39.37,49.46-1.78,20.16-16.36,40.93-44.21,40.93-1.29,0-2.62-.04-3.97-.14-27.6-1.88-40.61-24.11-41.01-43.97-.27-13.16,4.79-27.56,15.99-36.82l-20.54-37.93c-4.8,1.66-9.78,2.44-14.66,2.44-4.63,0-9.17-.69-13.38-1.96-.58-.18-1.17-.37-1.75-.57l-20.59,38.03c11.19,9.26,16.25,23.65,15.99,36.82-.4,19.86-13.41,42.1-41.02,43.97-1.35.09-2.68.14-3.97.14-27.86,0-42.43-20.77-44.21-40.93-1.97-22.23,10.93-46.36,39.37-49.46h0c2.77-.3,7.81-.3,10.58,0,3.87.42,7.43,1.25,10.71,2.41l20.45-37.78c-9.01-6.82-15.96-17.31-17.29-30.92l-49.51-2.59c-14.54,24.56-29.05,49.95-41.62,73.86-28.92,55.03-2.14,111.34,59.22,120.46h151.7c35.39-2.79,65.1-30.48,70.81-65.41,3.43-21.01-1.24-35.99-10.79-54.25-12.27-23.47-26.52-48.33-40.81-72.45ZM277.09,230.11l42.36-1.22c-4.67-7.79-9.3-15.46-13.83-22.92-3.61-5.95-7.31-11.52-11.24-16.61l-24.42,23.87c1.03,1.52,1.99,3.1,2.85,4.76,2.02,3.89,3.43,7.97,4.28,12.12ZM449.86,191.27c-9.48-8.85-39.09-34.09-39.09-34.09,0,0-29.61,25.24-39.09,34.09-10.58,9.88-15.97,23.11-16.42,36.59l28.34-.82c1.13-14.04,12.86-25.08,27.18-25.08,15.06,0,27.27,12.23,27.27,27.31s-12.21,27.31-27.27,27.31c-10.72,0-20-6.2-24.45-15.21l-29.67.86c2.29,10,7.32,19.52,15.03,27.23h0c21.59,21.59,56.59,21.59,78.18,0h0c21.59-21.59,22.31-57.34,0-78.18Z"/></g></svg>