<?xml version="1.0" encoding="UTF-8"?><svg id="Layer_2" xmlns="http://www.w3.org/2000/svg" xmlns:xlink="http://www.w3.org/1999/xlink" viewBox="0 0 1175.6 196.42"><defs><style>.cls-1{fill:url(#linear-gradient);}</style><linearGradient id="linear-gradient" x1="587.8" y1="179.08" x2="587.8" y2="-17.33" gradientUnits="userSpaceOnUse"><stop offset="0" stop-color="#fdb515"/><stop offset=".41" stop-color="#f0d50b"/><stop offset="1" stop-color="#e1ff00"/></linearGradient></defs><g id="Layer_2-2"><path class="cls-1" d="M12.1,28.8c3.07,0,5.76,1.15,8.06,3.46,2.3,2.3,3.46,5,3.46,8.06v.58c0,3.07-1.15,5.76-3.46,8.06-2.3,2.3-5,3.46-8.06,3.46h-.58c-3.07,0-5.76-1.15-8.06-3.46-2.3-2.3-3.46-4.99-3.46-8.06v-.58c0-3.07,1.15-5.76,3.46-8.06,2.3-2.3,4.99-3.46,8.06-3.46h.58ZM12.1,57.6c3.07,0,5.76,1.15,8.06,3.46,2.3,2.3,3.46,5,3.46,8.06v.58c0,3.07-1.15,5.76-3.46,8.06-2.3,2.3-5,3.46-8.06,3.46h-.58c-3.07,0-5.76-1.15-8.06-3.46-2.3-2.3-3.46-4.99-3.46-8.06v-.58c0-3.07,1.15-5.76,3.46-8.06,2.3-2.3,4.99-3.46,8.06-3.46h.58ZM12.1,86.4c3.07,0,5.76,1.15,8.06,3.46,2.3,2.3,3.46,4.99,3.46,8.06v.58c0,3.07-1.15,5.76-3.46,8.06-2.3,2.3-5,3.46-8.06,3.46h-.58c-3.07,0-5.76-1.15-8.06-3.46-2.3-2.3-3.46-4.99-3.46-8.06v-.58c0-3.07,1.15-5.76,3.46-8.06,2.3-2.3,4.99-3.46,8.06-3.46h.58ZM12.1,115.2c3.07,0,5.76,1.15,8.06,3.46,2.3,2.3,3.46,5,3.46,8.06v.58c0,3.07-1.15,5.76-3.46,8.06-2.3,2.3-5,3.46-8.06,3.46h-.58c-3.07,0-5.76-1.15-8.06-3.46-2.3-2.3-3.46-4.99-3.46-8.06v-.58c0-3.07,1.15-5.76,3.46-8.06,2.3-2.3,4.99-3.46,8.06-3.46h.58ZM12.1,144c3.07,0,5.76,1.15,8.06,3.46,2.3,2.3,3.46,4.99,3.46,8.06v.58c0,3.07-1.15,5.76-3.46,8.06s-5,3.46-8.06,3.46h-.58c-3.07,0-5.76-1.15-8.06-3.46s-3.46-4.99-3.46-8.06v-.58c0-3.07,1.15-5.76,3.46-8.06,2.3-2.3,4.99-3.46,8.06-3.46h.58ZM40.9,0c3.07,0,5.76,1.15,8.06,3.46,2.3,2.3,3.46,4.99,3.46,8.06v.58c0,3.07-1.15,5.76-3.46,8.06-2.3,2.3-5,3.46-8.06,3.46h-.58c-3.07,0-5.76-1.15-8.06-3.46-2.3-2.3-3.46-4.99-3.46-8.06v-.58c0-3.07,1.15-5.76,3.46-8.06,2.3-2.3,4.99-3.46,8.06-3.46h.58ZM40.9,172.8c3.07,0,5.76,1.15,8.06,3.46,2.3,2.3,3.46,5,3.46,8.06v.58c0,3.07-1.15,5.76-3.46,8.06-2.3,2.3-5,3.46-8.06,3.46h-.58c-3.07,0-5.76-1.15-8.06-3.46-2.3-2.3-3.46-4.99-3.46-8.06v-.58c0-3.07,1.15-5.76,3.46-8.06,2.3-2.3,4.99-3.46,8.06-3.46h.58ZM69.7,0c3.07,0,5.76,1.15,8.06,3.46,2.3,2.3,3.46,4.99,3.46,8.06v.58c0,3.07-1.15,5.76-3.46,8.06-2.3,2.3-4.99,3.46-8.06,3.46h-.58c-3.07,0-5.76-1.15-8.06-3.46-2.3-2.3-3.46-4.99-3.46-8.06v-.58c0-3.07,1.15-5.76,3.46-8.06,2.3-2.3,4.99-3.46,8.06-3.46h.58ZM69.7,172.8c3.07,0,5.76,1.15,8.06,3.46,2.3,2.3,3.46,5,3.46,8.06v.58c0,3.07-1.15,5.76-3.46,8.06-2.3,2.3-4.99,3.46-8.06,3.46h-.58c-3.07,0-5.76-1.15-8.06-3.46-2.3-2.3-3.46-4.99-3.46-8.06v-.58c0-3.07,1.15-5.76,3.46-8.06,2.3-2.3,4.99-3.46,8.06-3.46h.58ZM98.5,0c3.07,0,5.76,1.15,8.06,3.46,2.3,2.3,3.46,4.99,3.46,8.06v.58c0,3.07-1.15,5.76-3.46,8.06-2.3,2.3-5,3.46-8.06,3.46h-.58c-3.07,0-5.76-1.15-8.06-3.46-2.3-2.3-3.46-4.99-3.46-8.06v-.58c0-3.07,1.15-5.76,3.46-8.06,2.3-2.3,4.99-3.46,8.06-3.46h.58ZM98.5,172.8c3.07,0,5.76,1.15,8.06,3.46,2.3,2.3,3.46,5,3.46,8.06v.58c0,3.07-1.15,5.76-3.46,8.06-2.3,2.3-5,3.46-8.06,3.46h-.58c-3.07,0-5.76-1.15-8.06-3.46-2.3-2.3-3.46-4.99-3.46-8.06v-.58c0-3.07,1.15-5.76,3.46-8.06,2.3-2.3,4.99-3.46,8.06-3.46h.58ZM127.3,28.8c3.07,0,5.76,1.15,8.06,3.46,2.3,2.3,3.46,5,3.46,8.06v.58c0,3.07-1.15,5.76-3.46,8.06-2.3,2.3-5,3.46-8.06,3.46h-.58c-3.07,0-5.76-1.15-8.06-3.46-2.3-2.3-3.46-4.99-3.46-8.06v-.58c0-3.07,1.15-5.76,3.46-8.06,2.3-2.3,4.99-3.46,8.06-3.46h.58ZM127.3,57.6c3.07,0,5.76,1.15,8.06,3.46,2.3,2.3,3.46,5,3.46,8.06v.58c0,3.07-1.15,5.76-3.46,8.06-2.3,2.3-5,3.46-8.06,3.46h-.58c-3.07,0-5.76-1.15-8.06-3.46-2.3-2.3-3.46-4.99-3.46-8.06v-.58c0-3.07,1.15-5.76,3.46-8.06,2.3-2.3,4.99-3.46,8.06-3.46h.58ZM127.3,86.4c3.07,0,5.76,1.15,8.06,3.46,2.3,2.3,3.46,4.99,3.46,8.06v.58c0,3.07-1.15,5.76-3.46,8.06-2.3,2.3-5,3.46-8.06,3.46h-.58c-3.07,0-5.76-1.15-8.06-3.46-2.3-2.3-3.46-4.99-3.46-8.06v-.58c0-3.07,1.15-5.76,3.46-8.06,2.3-2.3,4.99-3.46,8.06-3.46h.58ZM127.3,115.2c3.07,0,5.76,1.15,8.06,3.46,2.3,2.3,3.46,5,3.46,8.06v.58c0,3.07-1.15,5.76-3.46,8.06-2.3,2.3-5,3.46-8.06,3.46h-.58c-3.07,0-5.76-1.15-8.06-3.46-2.3-2.3-3.46-4.99-3.46-8.06v-.58c0-3.07,1.15-5.76,3.46-8.06,2.3-2.3,4.99-3.46,8.06-3.46h.58ZM127.3,144c3.07,0,5.76,1.15,8.06,3.46,2.3,2.3,3.46,4.99,3.46,8.06v.58c0,3.07-1.15,5.76-3.46,8.06s-5,3.46-8.06,3.46h-.58c-3.07,0-5.76-1.15-8.06-3.46s-3.46-4.99-3.46-8.06v-.58c0-3.07,1.15-5.76,3.46-8.06,2.3-2.3,4.99-3.46,8.06-3.46h.58ZM184.89,86.4c3.07,0,5.76,1.15,8.06,3.46,2.3,2.3,3.46,4.99,3.46,8.06v.58c0,3.07-1.15,5.76-3.46,8.06-2.3,2.3-5,3.46-8.06,3.46h-.58c-3.07,0-5.76-1.15-8.06-3.46-2.3-2.3-3.46-4.99-3.46-8.06v-.58c0-3.07,1.15-5.76,3.46-8.06,2.3-2.3,4.99-3.46,8.06-3.46h.58ZM184.89,172.8c3.07,0,5.76,1.15,8.06,3.46s3.46,5,3.46,8.06v.58c0,3.07-1.15,5.76-3.46,8.06s-5,3.46-8.06,3.46h-.58c-3.07,0-5.76-1.15-8.06-3.46s-3.46-4.99-3.46-8.06v-.58c0-3.07,1.15-5.76,3.46-8.06s4.99-3.46,8.06-3.46h.58ZM213.69,57.6c3.07,0,5.76,1.15,8.06,3.46,2.3,2.3,3.46,5,3.46,8.06v.58c0,3.07-1.15,5.76-3.46,8.06-2.3,2.3-5,3.46-8.06,3.46h-.58c-3.07,0-5.76-1.15-8.06-3.46-2.3-2.3-3.46-4.99-3.46-8.06v-.58c0-3.07,1.15-5.76,3.46-8.06,2.3-2.3,4.99-3.46,8.06-3.46h.58ZM213.69,115.2c3.07,0,5.76,1.15,8.06,3.46,2.3,2.3,3.46,5,3.46,8.06v.58c0,3.07-1.15,5.76-3.46,8.06-2.3,2.3-5,3.46-8.06,3.46h-.58c-3.07,0-5.76-1.15-8.06-3.46-2.3-2.3-3.46-4.99-3.46-8.06v-.58c0-3.07,1.15-5.76,3.46-8.06,2.3-2.3,4.99-3.46,8.06-3.46h.58ZM213.69,172.8c3.07,0,5.76,1.15,8.06,3.46,2.3,2.3,3.46,5,3.46,8.06v.58c0,3.07-1.15,5.76-3.46,8.06-2.3,2.3-5,3.46-8.06,3.46h-.58c-3.07,0-5.76-1.15-8.06-3.46-2.3-2.3-3.46-4.99-3.46-8.06v-.58c0-3.07,1.15-5.76,3.46-8.06,2.3-2.3,4.99-3.46,8.06-3.46h.58ZM242.49,57.6c3.07,0,5.76,1.15,8.06,3.46,2.3,2.3,3.46,5,3.46,8.06v.58c0,3.07-1.15,5.76-3.46,8.06-2.3,2.3-4.99,3.46-8.06,3.46h-.58c-3.07,0-5.76-1.15-8.06-3.46-2.3-2.3-3.46-4.99-3.46-8.06v-.58c0-3.07,1.15-5.76,3.46-8.06,2.3-2.3,4.99-3.46,8.06-3.46h.58ZM242.49,115.2c3.07,0,5.76,1.15,8.06,3.46,2.3,2.3,3.46,5,3.46,8.06v.58c0,3.07-1.15,5.76-3.46,8.06-2.3,2.3-4.99,3.46-8.06,3.46h-.58c-3.07,0-5.76-1.15-8.06-3.46-2.3-2.3-3.46-4.99-3.46-8.06v-.58c0-3.07,1.15-5.76,3.46-8.06,2.3-2.3,4.99-3.46,8.06-3.46h.58ZM242.49,172.8c3.07,0,5.76,1.15,8.06,3.46,2.3,2.3,3.46,5,3.46,8.06v.58c0,3.07-1.15,5.76-3.46,8.06-2.3,2.3-4.99,3.46-8.06,3.46h-.58c-3.07,0-5.76-1.15-8.06-3.46-2.3-2.3-3.46-4.99-3.46-8.06v-.58c0-3.07,1.15-5.76,3.46-8.06,2.3-2.3,4.99-3.46,8.06-3.46h.58ZM271.29,57.6c3.07,0,5.76,1.15,8.06,3.46,2.3,2.3,3.46,5,3.46,8.06v.58c0,3.07-1.15,5.76-3.46,8.06-2.3,2.3-5,3.46-8.06,3.46h-.58c-3.07,0-5.76-1.15-8.06-3.46-2.3-2.3-3.46-4.99-3.46-8.06v-.58c0-3.07,1.15-5.76,3.46-8.06,2.3-2.3,4.99-3.46,8.06-3.46h.58ZM271.29,115.2c3.07,0,5.76,1.15,8.06,3.46,2.3,2.3,3.46,5,3.46,8.06v.58c0,3.07-1.15,5.76-3.46,8.06-2.3,2.3-5,3.46-8.06,3.46h-.58c-3.07,0-5.76-1.15-8.06-3.46-2.3-2.3-3.46-4.99-3.46-8.06v-.58c0-3.07,1.15-5.76,3.46-8.06,2.3-2.3,4.99-3.46,8.06-3.46h.58ZM271.29,172.8c3.07,0,5.76,1.15,8.06,3.46,2.3,2.3,3.46,5,3.46,8.06v.58c0,3.07-1.15,5.76-3.46,8.06-2.3,2.3-5,3.46-8.06,3.46h-.58c-3.07,0-5.76-1.15-8.06-3.46-2.3-2.3-3.46-4.99-3.46-8.06v-.58c0-3.07,1.15-5.76,3.46-8.06,2.3-2.3,4.99-3.46,8.06-3.46h.58ZM300.09,144c3.07,0,5.76,1.15,8.06,3.46,2.3,2.3,3.46,4.99,3.46,8.06v.58c0,3.07-1.15,5.76-3.46,8.06s-5,3.46-8.06,3.46h-.58c-3.07,0-5.76-1.15-8.06-3.46s-3.46-4.99-3.46-8.06v-.58c0-3.07,1.15-5.76,3.46-8.06,2.3-2.3,4.99-3.46,8.06-3.46h.58ZM357.69,0c3.07,0,5.76,1.15,8.06,3.46,2.3,2.3,3.46,4.99,3.46,8.06v.58c0,3.07-1.15,5.76-3.46,8.06-2.3,2.3-5,3.46-8.06,3.46h-.58c-3.07,0-5.76-1.15-8.06-3.46-2.3-2.3-3.46-4.99-3.46-8.06v-.58c0-3.07,1.15-5.76,3.46-8.06,2.3-2.3,4.99-3.46,8.06-3.46h.58ZM357.69,28.8c3.07,0,5.76,1.15,8.06,3.46,2.3,2.3,3.46,5,3.46,8.06v.58c0,3.07-1.15,5.76-3.46,8.06-2.3,2.3-5,3.46-8.06,3.46h-.58c-3.07,0-5.76-1.15-8.06-3.46-2.3-2.3-3.46-4.99-3.46-8.06v-.58c0-3.07,1.15-5.76,3.46-8.06,2.3-2.3,4.99-3.46,8.06-3.46h.58ZM357.69,57.6c3.07,0,5.76,1.15,8.06,3.46,2.3,2.3,3.46,5,3.46,8.06v.58c0,3.07-1.15,5.76-3.46,8.06-2.3,2.3-5,3.46-8.06,3.46h-.58c-3.07,0-5.76-1.15-8.06-3.46-2.3-2.3-3.46-4.99-3.46-8.06v-.58c0-3.07,1.15-5.76,3.46-8.06,2.3-2.3,4.99-3.46,8.06-3.46h.58ZM357.69,86.4c3.07,0,5.76,1.15,8.06,3.46,2.3,2.3,3.46,4.99,3.46,8.06v.58c0,3.07-1.15,5.76-3.46,8.06-2.3,2.3-5,3.46-8.06,3.46h-.58c-3.07,0-5.76-1.15-8.06-3.46-2.3-2.3-3.46-4.99-3.46-8.06v-.58c0-3.07,1.15-5.76,3.46-8.06,2.3-2.3,4.99-3.46,8.06-3.46h.58ZM357.69,115.2c3.07,0,5.76,1.15,8.06,3.46,2.3,2.3,3.46,5,3.46,8.06v.58c0,3.07-1.15,5.76-3.46,8.06-2.3,2.3-5,3.46-8.06,3.46h-.58c-3.07,0-5.76-1.15-8.06-3.46-2.3-2.3-3.46-4.99-3.46-8.06v-.58c0-3.07,1.15-5.76,3.46-8.06,2.3-2.3,4.99-3.46,8.06-3.46h.58ZM357.69,144c3.07,0,5.76,1.15,8.06,3.46,2.3,2.3,3.46,4.99,3.46,8.06v.58c0,3.07-1.15,5.76-3.46,8.06s-5,3.46-8.06,3.46h-.58c-3.07,0-5.76-1.15-8.06-3.46s-3.46-4.99-3.46-8.06v-.58c0-3.07,1.15-5.76,3.46-8.06,2.3-2.3,4.99-3.46,8.06-3.46h.58ZM357.69,172.8c3.07,0,5.76,1.15,8.06,3.46s3.46,5,3.46,8.06v.58c0,3.07-1.15,5.76-3.46,8.06s-5,3.46-8.06,3.46h-.58c-3.07,0-5.76-1.15-8.06-3.46s-3.46-4.99-3.46-8.06v-.58c0-3.07,1.15-5.76,3.46-8.06s4.99-3.46,8.06-3.46h.58ZM386.49,115.2c3.07,0,5.76,1.15,8.06,3.46,2.3,2.3,3.46,5,3.46,8.06v.58c0,3.07-1.15,5.76-3.46,8.06-2.3,2.3-5,3.46-8.06,3.46h-.58c-3.07,0-5.76-1.15-8.06-3.46-2.3-2.3-3.46-4.99-3.46-8.06v-.58c0-3.07,1.15-5.76,3.46-8.06,2.3-2.3,4.99-3.46,8.06-3.46h.58ZM415.29,115.2c3.07,0,5.76,1.15,8.06,3.46,2.3,2.3,3.46,5,3.46,8.06v.58c0,3.07-1.15,5.76-3.46,8.06-2.3,2.3-4.99,3.46-8.06,3.46h-.58c-3.07,0-5.76-1.15-8.06-3.46-2.3-2.3-3.46-4.99-3.46-8.06v-.58c0-3.07,1.15-5.76,3.46-8.06,2.3-2.3,4.99-3.46,8.06-3.46h.58ZM444.09,86.4c3.07,0,5.76,1.15,8.06,3.46,2.3,2.3,3.46,4.99,3.46,8.06v.58c0,3.07-1.15,5.76-3.46,8.06-2.3,2.3-5,3.46-8.06,3.46h-.58c-3.07,0-5.76-1.15-8.06-3.46-2.3-2.3-3.46-4.99-3.46-8.06v-.58c0-3.07,1.15-5.76,3.46-8.06,2.3-2.3,4.99-3.46,8.06-3.46h.58ZM444.09,144c3.07,0,5.76,1.15,8.06,3.46,2.3,2.3,3.46,4.99,3.46,8.06v.58c0,3.07-1.15,5.76-3.46,8.06-2.3,2.3-5,3.46-8.06,3.46h-.58c-3.07,0-5.76-1.15-8.06-3.46-2.3-2.3-3.46-4.99-3.46-8.06v-.58c0-3.07,1.15-5.76,3.46-8.06,2.3-2.3,4.99-3.46,8.06-3.46h.58ZM472.89,57.6c3.07,0,5.76,1.15,8.06,3.46,2.3,2.3,3.46,5,3.46,8.06v.58c0,3.07-1.15,5.76-3.46,8.06-2.3,2.3-5,3.46-8.06,3.46h-.58c-3.07,0-5.76-1.15-8.06-3.46-2.3-2.3-3.46-4.99-3.46-8.06v-.58c0-3.07,1.15-5.76,3.46-8.06,2.3-2.3,4.99-3.46,8.06-3.46h.58ZM472.89,172.8c3.07,0,5.76,1.15,8.06,3.46s3.46,5,3.46,8.06v.58c0,3.07-1.15,5.76-3.46,8.06s-5,3.46-8.06,3.46h-.58c-3.07,0-5.76-1.15-8.06-3.46s-3.46-4.99-3.46-8.06v-.58c0-3.07,1.15-5.76,3.46-8.06s4.99-3.46,8.06-3.46h.58ZM559.29,57.6c3.07,0,5.76,1.15,8.06,3.46,2.3,2.3,3.46,5,3.46,8.06v.58c0,3.07-1.15,5.76-3.46,8.06-2.3,2.3-5,3.46-8.06,3.46h-.58c-3.07,0-5.76-1.15-8.06-3.46-2.3-2.3-3.46-4.99-3.46-8.06v-.58c0-3.07,1.15-5.76,3.46-8.06,2.3-2.3,4.99-3.46,8.06-3.46h.58ZM559.29,172.8c3.07,0,5.76,1.15,8.06,3.46,2.3,2.3,3.46,5,3.46,8.06v.58c0,3.07-1.15,5.76-3.46,8.06-2.3,2.3-5,3.46-8.06,3.46h-.58c-3.07,0-5.76-1.15-8.06-3.46-2.3-2.3-3.46-4.99-3.46-8.06v-.58c0-3.07,1.15-5.76,3.46-8.06,2.3-2.3,4.99-3.46,8.06-3.46h.58ZM588.09,0c3.07,0,5.76,1.15,8.06,3.46,2.3,2.3,3.46,4.99,3.46,8.06v.58c0,3.07-1.15,5.76-3.46,8.06-2.3,2.3-4.99,3.46-8.06,3.46h-.58c-3.07,0-5.76-1.15-8.06-3.46-2.3-2.3-3.46-4.99-3.46-8.06v-.58c0-3.07,1.15-5.76,3.46-8.06,2.3-2.3,4.99-3.46,8.06-3.46h.58ZM588.09,57.6c3.07,0,5.76,1.15,8.06,3.46,2.3,2.3,3.46,5,3.46,8.06v.58c0,3.07-1.15,5.76-3.46,8.06-2.3,2.3-4.99,3.46-8.06,3.46h-.58c-3.07,0-5.76-1.15-8.06-3.46-2.3-2.3-3.46-4.99-3.46-8.06v-.58c0-3.07,1.15-5.76,3.46-8.06,2.3-2.3,4.99-3.46,8.06-3.46h.58ZM588.09,86.4c3.07,0,5.76,1.15,8.06,3.46,2.3,2.3,3.46,4.99,3.46,8.06v.58c0,3.07-1.15,5.76-3.46,8.06-2.3,2.3-4.99,3.46-8.06,3.46h-.58c-3.07,0-5.76-1.15-8.06-3.46-2.3-2.3-3.46-4.99-3.46-8.06v-.58c0-3.07,1.15-5.76,3.46-8.06,2.3-2.3,4.99-3.46,8.06-3.46h.58ZM588.09,115.2c3.07,0,5.76,1.15,8.06,3.46,2.3,2.3,3.46,5,3.46,8.06v.58c0,3.07-1.15,5.76-3.46,8.06-2.3,2.3-4.99,3.46-8.06,3.46h-.58c-3.07,0-5.76-1.15-8.06-3.46-2.3-2.3-3.46-4.99-3.46-8.06v-.58c0-3.07,1.15-5.76,3.46-8.06,2.3-2.3,4.99-3.46,8.06-3.46h.58ZM588.09,144c3.07,0,5.76,1.15,8.06,3.46,2.3,2.3,3.46,4.99,3.46,8.06v.58c0,3.07-1.15,5.76-3.46,8.06-2.3,2.3-4.99,3.46-8.06,3.46h-.58c-3.07,0-5.76-1.15-8.06-3.46-2.3-2.3-3.46-4.99-3.46-8.06v-.58c0-3.07,1.15-5.76,3.46-8.06,2.3-2.3,4.99-3.46,8.06-3.46h.58ZM588.09,172.8c3.07,0,5.76,1.15,8.06,3.46,2.3,2.3,3.46,5,3.46,8.06v.58c0,3.07-1.15,5.76-3.46,8.06-2.3,2.3-4.99,3.46-8.06,3.46h-.58c-3.07,0-5.76-1.15-8.06-3.46-2.3-2.3-3.46-4.99-3.46-8.06v-.58c0-3.07,1.15-5.76,3.46-8.06,2.3-2.3,4.99-3.46,8.06-3.46h.58ZM616.89,172.8c3.07,0,5.76,1.15,8.06,3.46,2.3,2.3,3.46,5,3.46,8.06v.58c0,3.07-1.15,5.76-3.46,8.06-2.3,2.3-5,3.46-8.06,3.46h-.58c-3.07,0-5.76-1.15-8.06-3.46-2.3-2.3-3.46-4.99-3.46-8.06v-.58c0-3.07,1.15-5.76,3.46-8.06,2.3-2.3,4.99-3.46,8.06-3.46h.58ZM703.29,0c3.07,0,5.76,1.15,8.06,3.46,2.3,2.3,3.46,4.99,3.46,8.06v.58c0,3.07-1.15,5.76-3.46,8.06-2.3,2.3-5,3.46-8.06,3.46h-.58c-3.07,0-5.76-1.15-8.06-3.46-2.3-2.3-3.46-4.99-3.46-8.06v-.58c0-3.07,1.15-5.76,3.46-8.06,2.3-2.3,4.99-3.46,8.06-3.46h.58ZM703.29,28.8c3.07,0,5.76,1.15,8.06,3.46,2.3,2.3,3.46,5,3.46,8.06v.58c0,3.07-1.15,5.76-3.46,8.06-2.3,2.3-5,3.46-8.06,3.46h-.58c-3.07,0-5.76-1.15-8.06-3.46-2.3-2.3-3.46-4.99-3.46-8.06v-.58c0-3.07,1.15-5.76,3.46-8.06,2.3-2.3,4.99-3.46,8.06-3.46h.58ZM703.29,57.6c3.07,0,5.76,1.15,8.06,3.46,2.3,2.3,3.46,5,3.46,8.06v.58c0,3.07-1.15,5.76-3.46,8.06-2.3,2.3-5,3.46-8.06,3.46h-.58c-3.07,0-5.76-1.15-8.06-3.46-2.3-2.3-3.46-4.99-3.46-8.06v-.58c0-3.07,1.15-5.76,3.46-8.06,2.3-2.3,4.99-3.46,8.06-3.46h.58ZM703.29,86.4c3.07,0,5.76,1.15,8.06,3.46,2.3,2.3,3.46,4.99,3.46,8.06v.58c0,3.07-1.15,5.76-3.46,8.06-2.3,2.3-5,3.46-8.06,3.46h-.58c-3.07,0-5.76-1.15-8.06-3.46-2.3-2.3-3.46-4.99-3.46-8.06v-.58c0-3.07,1.15-5.76,3.46-8.06,2.3-2.3,4.99-3.46,8.06-3.46h.58ZM703.29,115.2c3.07,0,5.76,1.15,8.06,3.46,2.3,2.3,3.46,5,3.46,8.06v.58c0,3.07-1.15,5.76-3.46,8.06-2.3,2.3-5,3.46-8.06,3.46h-.58c-3.07,0-5.76-1.15-8.06-3.46-2.3-2.3-3.46-4.99-3.46-8.06v-.58c0-3.07,1.15-5.76,3.46-8.06,2.3-2.3,4.99-3.46,8.06-3.46h.58ZM703.29,144c3.07,0,5.76,1.15,8.06,3.46,2.3,2.3,3.46,4.99,3.46,8.06v.58c0,3.07-1.15,5.76-3.46,8.06s-5,3.46-8.06,3.46h-.58c-3.07,0-5.76-1.15-8.06-3.46s-3.46-4.99-3.46-8.06v-.58c0-3.07,1.15-5.76,3.46-8.06,2.3-2.3,4.99-3.46,8.06-3.46h.58ZM703.29,172.8c3.07,0,5.76,1.15,8.06,3.46s3.46,5,3.46,8.06v.58c0,3.07-1.15,5.76-3.46,8.06s-5,3.46-8.06,3.46h-.58c-3.07,0-5.76-1.15-8.06-3.46s-3.46-4.99-3.46-8.06v-.58c0-3.07,1.15-5.76,3.46-8.06s4.99-3.46,8.06-3.46h.58ZM732.08,86.4c3.07,0,5.76,1.15,8.06,3.46,2.3,2.3,3.46,4.99,3.46,8.06v.58c0,3.07-1.15,5.76-3.46,8.06-2.3,2.3-5,3.46-8.06,3.46h-.58c-3.07,0-5.76-1.15-8.06-3.46-2.3-2.3-3.46-4.99-3.46-8.06v-.58c0-3.07,1.15-5.76,3.46-8.06,2.3-2.3,4.99-3.46,8.06-3.46h.58ZM760.88,86.4c3.07,0,5.76,1.15,8.06,3.46,2.3,2.3,3.46,4.99,3.46,8.06v.58c0,3.07-1.15,5.76-3.46,8.06-2.3,2.3-4.99,3.46-8.06,3.46h-.58c-3.07,0-5.76-1.15-8.06-3.46-2.3-2.3-3.46-4.99-3.46-8.06v-.58c0-3.07,1.15-5.76,3.46-8.06,2.3-2.3,4.99-3.46,8.06-3.46h.58ZM789.68,86.4c3.07,0,5.76,1.15,8.06,3.46,2.3,2.3,3.46,4.99,3.46,8.06v.58c0,3.07-1.15,5.76-3.46,8.06-2.3,2.3-5,3.46-8.06,3.46h-.58c-3.07,0-5.76-1.15-8.06-3.46-2.3-2.3-3.46-4.99-3.46-8.06v-.58c0-3.07,1.15-5.76,3.46-8.06,2.3-2.3,4.99-3.46,8.06-3.46h.58ZM818.48,0c3.07,0,5.76,1.15,8.06,3.46,2.3,2.3,3.46,4.99,3.46,8.06v.58c0,3.07-1.15,5.76-3.46,8.06-2.3,2.3-5,3.46-8.06,3.46h-.58c-3.07,0-5.76-1.15-8.06-3.46-2.3-2.3-3.46-4.99-3.46-8.06v-.58c0-3.07,1.15-5.76,3.46-8.06,2.3-2.3,4.99-3.46,8.06-3.46h.58ZM818.48,28.8c3.07,0,5.76,1.15,8.06,3.46,2.3,2.3,3.46,5,3.46,8.06v.58c0,3.07-1.15,5.76-3.46,8.06-2.3,2.3-5,3.46-8.06,3.46h-.58c-3.07,0-5.76-1.15-8.06-3.46-2.3-2.3-3.46-4.99-3.46-8.06v-.58c0-3.07,1.15-5.76,3.46-8.06,2.3-2.3,4.99-3.46,8.06-3.46h.58ZM818.48,57.6c3.07,0,5.76,1.15,8.06,3.46,2.3,2.3,3.46,5,3.46,8.06v.58c0,3.07-1.15,5.76-3.46,8.06-2.3,2.3-5,3.46-8.06,3.46h-.58c-3.07,0-5.76-1.15-8.06-3.46-2.3-2.3-3.46-4.99-3.46-8.06v-.58c0-3.07,1.15-5.76,3.46-8.06,2.3-2.3,4.99-3.46,8.06-3.46h.58ZM818.48,86.4c3.07,0,5.76,1.15,8.06,3.46,2.3,2.3,3.46,4.99,3.46,8.06v.58c0,3.07-1.15,5.76-3.46,8.06-2.3,2.3-5,3.46-8.06,3.46h-.58c-3.07,0-5.76-1.15-8.06-3.46-2.3-2.3-3.46-4.99-3.46-8.06v-.58c0-3.07,1.15-5.76,3.46-8.06,2.3-2.3,4.99-3.46,8.06-3.46h.58ZM818.48,115.2c3.07,0,5.76,1.15,8.06,3.46,2.3,2.3,3.46,5,3.46,8.06v.58c0,3.07-1.15,5.76-3.46,8.06-2.3,2.3-5,3.46-8.06,3.46h-.58c-3.07,0-5.76-1.15-8.06-3.46-2.3-2.3-3.46-4.99-3.46-8.06v-.58c0-3.07,1.15-5.76,3.46-8.06,2.3-2.3,4.99-3.46,8.06-3.46h.58ZM818.48,144c3.07,0,5.76,1.15,8.06,3.46,2.3,2.3,3.46,4.99,3.46,8.06v.58c0,3.07-1.15,5.76-3.46,8.06s-5,3.46-8.06,3.46h-.58c-3.07,0-5.76-1.15-8.06-3.46s-3.46-4.99-3.46-8.06v-.58c0-3.07,1.15-5.76,3.46-8.06,2.3-2.3,4.99-3.46,8.06-3.46h.58ZM818.48,172.8c3.07,0,5.76,1.15,8.06,3.46s3.46,5,3.46,8.06v.58c0,3.07-1.15,5.76-3.46,8.06s-5,3.46-8.06,3.46h-.58c-3.07,0-5.76-1.15-8.06-3.46s-3.46-4.99-3.46-8.06v-.58c0-3.07,1.15-5.76,3.46-8.06s4.99-3.46,8.06-3.46h.58ZM876.08,57.6c3.07,0,5.76,1.15,8.06,3.46,2.3,2.3,3.46,5,3.46,8.06v.58c0,3.07-1.15,5.76-3.46,8.06-2.3,2.3-5,3.46-8.06,3.46h-.58c-3.07,0-5.76-1.15-8.06-3.46-2.3-2.3-3.46-4.99-3.46-8.06v-.58c0-3.07,1.15-5.76,3.46-8.06,2.3-2.3,4.99-3.46,8.06-3.46h.58ZM876.08,86.4c3.07,0,5.76,1.15,8.06,3.46,2.3,2.3,3.46,4.99,3.46,8.06v.58c0,3.07-1.15,5.76-3.46,8.06-2.3,2.3-5,3.46-8.06,3.46h-.58c-3.07,0-5.76-1.15-8.06-3.46-2.3-2.3-3.46-4.99-3.46-8.06v-.58c0-3.07,1.15-5.76,3.46-8.06,2.3-2.3,4.99-3.46,8.06-3.46h.58ZM876.08,115.2c3.07,0,5.76,1.15,8.06,3.46,2.3,2.3,3.46,5,3.46,8.06v.58c0,3.07-1.15,5.76-3.46,8.06-2.3,2.3-5,3.46-8.06,3.46h-.58c-3.07,0-5.76-1.15-8.06-3.46-2.3-2.3-3.46-4.99-3.46-8.06v-.58c0-3.07,1.15-5.76,3.46-8.06,2.3-2.3,4.99-3.46,8.06-3.46h.58ZM876.08,144c3.07,0,5.76,1.15,8.06,3.46,2.3,2.3,3.46,4.99,3.46,8.06v.58c0,3.07-1.15,5.76-3.46,8.06s-5,3.46-8.06,3.46h-.58c-3.07,0-5.76-1.15-8.06-3.46s-3.46-4.99-3.46-8.06v-.58c0-3.07,1.15-5.76,3.46-8.06,2.3-2.3,4.99-3.46,8.06-3.46h.58ZM904.88,172.8c3.07,0,5.76,1.15,8.06,3.46,2.3,2.3,3.46,5,3.46,8.06v.58c0,3.07-1.15,5.76-3.46,8.06-2.3,2.3-5,3.46-8.06,3.46h-.58c-3.07,0-5.76-1.15-8.06-3.46-2.3-2.3-3.46-4.99-3.46-8.06v-.58c0-3.07,1.15-5.76,3.46-8.06,2.3-2.3,4.99-3.46,8.06-3.46h.58ZM933.68,172.8c3.07,0,5.76,1.15,8.06,3.46,2.3,2.3,3.46,5,3.46,8.06v.58c0,3.07-1.15,5.76-3.46,8.06-2.3,2.3-4.99,3.46-8.06,3.46h-.58c-3.07,0-5.76-1.15-8.06-3.46-2.3-2.3-3.46-4.99-3.46-8.06v-.58c0-3.07,1.15-5.76,3.46-8.06,2.3-2.3,4.99-3.46,8.06-3.46h.58ZM962.48,144c3.07,0,5.76,1.15,8.06,3.46,2.3,2.3,3.46,4.99,3.46,8.06v.58c0,3.07-1.15,5.76-3.46,8.06-2.3,2.3-5,3.46-8.06,3.46h-.58c-3.07,0-5.76-1.15-8.06-3.46-2.3-2.3-3.46-4.99-3.46-8.06v-.58c0-3.07,1.15-5.76,3.46-8.06,2.3-2.3,4.99-3.46,8.06-3.46h.58ZM991.28,57.6c3.07,0,5.76,1.15,8.06,3.46,2.3,2.3,3.46,5,3.46,8.06v.58c0,3.07-1.15,5.76-3.46,8.06-2.3,2.3-5,3.46-8.06,3.46h-.58c-3.07,0-5.76-1.15-8.06-3.46-2.3-2.3-3.46-4.99-3.46-8.06v-.58c0-3.07,1.15-5.76,3.46-8.06,2.3-2.3,4.99-3.46,8.06-3.46h.58ZM991.28,86.4c3.07,0,5.76,1.15,8.06,3.46,2.3,2.3,3.46,4.99,3.46,8.06v.58c0,3.07-1.15,5.76-3.46,8.06-2.3,2.3-5,3.46-8.06,3.46h-.58c-3.07,0-5.76-1.15-8.06-3.46-2.3-2.3-3.46-4.99-3.46-8.06v-.58c0-3.07,1.15-5.76,3.46-8.06,2.3-2.3,4.99-3.46,8.06-3.46h.58ZM991.28,115.2c3.07,0,5.76,1.15,8.06,3.46,2.3,2.3,3.46,5,3.46,8.06v.58c0,3.07-1.15,5.76-3.46,8.06-2.3,2.3-5,3.46-8.06,3.46h-.58c-3.07,0-5.76-1.15-8.06-3.46-2.3-2.3-3.46-4.99-3.46-8.06v-.58c0-3.07,1.15-5.76,3.46-8.06,2.3-2.3,4.99-3.46,8.06-3.46h.58ZM991.28,144c3.07,0,5.76,1.15,8.06,3.46,2.3,2.3,3.46,4.99,3.46,8.06v.58c0,3.07-1.15,5.76-3.46,8.06s-5,3.46-8.06,3.46h-.58c-3.07,0-5.76-1.15-8.06-3.46s-3.46-4.99-3.46-8.06v-.58c0-3.07,1.15-5.76,3.46-8.06,2.3-2.3,4.99-3.46,8.06-3.46h.58ZM991.28,172.8c3.07,0,5.76,1.15,8.06,3.46s3.46,5,3.46,8.06v.58c0,3.07-1.15,5.76-3.46,8.06s-5,3.46-8.06,3.46h-.58c-3.07,0-5.76-1.15-8.06-3.46s-3.46-4.99-3.46-8.06v-.58c0-3.07,1.15-5.76,3.46-8.06s4.99-3.46,8.06-3.46h.58ZM1048.88,0c3.07,0,5.76,1.15,8.06,3.46,2.3,2.3,3.46,4.99,3.46,8.06v.58c0,3.07-1.15,5.76-3.46,8.06-2.3,2.3-5,3.46-8.06,3.46h-.58c-3.07,0-5.76-1.15-8.06-3.46-2.3-2.3-3.46-4.99-3.46-8.06v-.58c0-3.07,1.15-5.76,3.46-8.06,2.3-2.3,4.99-3.46,8.06-3.46h.58ZM1048.88,28.8c3.07,0,5.76,1.15,8.06,3.46,2.3,2.3,3.46,5,3.46,8.06v.58c0,3.07-1.15,5.76-3.46,8.06-2.3,2.3-5,3.46-8.06,3.46h-.58c-3.07,0-5.76-1.15-8.06-3.46-2.3-2.3-3.46-4.99-3.46-8.06v-.58c0-3.07,1.15-5.76,3.46-8.06,2.3-2.3,4.99-3.46,8.06-3.46h.58ZM1048.88,57.6c3.07,0,5.76,1.15,8.06,3.46,2.3,2.3,3.46,5,3.46,8.06v.58c0,3.07-1.15,5.76-3.46,8.06-2.3,2.3-5,3.46-8.06,3.46h-.58c-3.07,0-5.76-1.15-8.06-3.46-2.3-2.3-3.46-4.99-3.46-8.06v-.58c0-3.07,1.15-5.76,3.46-8.06,2.3-2.3,4.99-3.46,8.06-3.46h.58ZM1048.88,86.4c3.07,0,5.76,1.15,8.06,3.46,2.3,2.3,3.46,4.99,3.46,8.06v.58c0,3.07-1.15,5.76-3.46,8.06-2.3,2.3-5,3.46-8.06,3.46h-.58c-3.07,0-5.76-1.15-8.06-3.46-2.3-2.3-3.46-4.99-3.46-8.06v-.58c0-3.07,1.15-5.76,3.46-8.06,2.3-2.3,4.99-3.46,8.06-3.46h.58ZM1048.88,115.2c3.07,0,5.76,1.15,8.06,3.46,2.3,2.3,3.46,5,3.46,8.06v.58c0,3.07-1.15,5.76-3.46,8.06-2.3,2.3-5,3.46-8.06,3.46h-.58c-3.07,0-5.76-1.15-8.06-3.46-2.3-2.3-3.46-4.99-3.46-8.06v-.58c0-3.07,1.15-5.76,3.46-8.06,2.3-2.3,4.99-3.46,8.06-3.46h.58ZM1048.88,144c3.07,0,5.76,1.15,8.06,3.46,2.3,2.3,3.46,4.99,3.46,8.06v.58c0,3.07-1.15,5.76-3.46,8.06s-5,3.46-8.06,3.46h-.58c-3.07,0-5.76-1.15-8.06-3.46s-3.46-4.99-3.46-8.06v-.58c0-3.07,1.15-5.76,3.46-8.06,2.3-2.3,4.99-3.46,8.06-3.46h.58ZM1048.88,172.8c3.07,0,5.76,1.15,8.06,3.46s3.46,5,3.46,8.06v.58c0,3.07-1.15,5.76-3.46,8.06s-5,3.46-8.06,3.46h-.58c-3.07,0-5.76-1.15-8.06-3.46s-3.46-4.99-3.46-8.06v-.58c0-3.07,1.15-5.76,3.46-8.06s4.99-3.46,8.06-3.46h.58ZM1077.68,86.4c3.07,0,5.76,1.15,8.06,3.46,2.3,2.3,3.46,4.99,3.46,8.06v.58c0,3.07-1.15,5.76-3.46,8.06-2.3,2.3-5,3.46-8.06,3.46h-.58c-3.07,0-5.76-1.15-8.06-3.46-2.3-2.3-3.46-4.99-3.46-8.06v-.58c0-3.07,1.15-5.76,3.46-8.06,2.3-2.3,4.99-3.46,8.06-3.46h.58ZM1077.68,144c3.07,0,5.76,1.15,8.06,3.46,2.3,2.3,3.46,4.99,3.46,8.06v.58c0,3.07-1.15,5.76-3.46,8.06-2.3,2.3-5,3.46-8.06,3.46h-.58c-3.07,0-5.76-1.15-8.06-3.46-2.3-2.3-3.46-4.99-3.46-8.06v-.58c0-3.07,1.15-5.76,3.46-8.06,2.3-2.3,4.99-3.46,8.06-3.46h.58ZM1106.48,57.6c3.07,0,5.76,1.15,8.06,3.46,2.3,2.3,3.46,5,3.46,8.06v.58c0,3.07-1.15,5.76-3.46,8.06-2.3,2.3-4.99,3.46-8.06,3.46h-.58c-3.07,0-5.76-1.15-8.06-3.46-2.3-2.3-3.46-4.99-3.46-8.06v-.58c0-3.07,1.15-5.76,3.46-8.06,2.3-2.3,4.99-3.46,8.06-3.46h.58ZM1106.48,172.8c3.07,0,5.76,1.15,8.06,3.46,2.3,2.3,3.46,5,3.46,8.06v.58c0,3.07-1.15,5.76-3.46,8.06-2.3,2.3-4.99,3.46-8.06,3.46h-.58c-3.07,0-5.76-1.15-8.06-3.46-2.3-2.3-3.46-4.99-3.46-8.06v-.58c0-3.07,1.15-5.76,3.46-8.06,2.3-2.3,4.99-3.46,8.06-3.46h.58ZM1135.28,57.6c3.07,0,5.76,1.15,8.06,3.46,2.3,2.3,3.46,5,3.46,8.06v.58c0,3.07-1.15,5.76-3.46,8.06-2.3,2.3-5,3.46-8.06,3.46h-.58c-3.07,0-5.76-1.15-8.06-3.46-2.3-2.3-3.46-4.99-3.46-8.06v-.58c0-3.07,1.15-5.76,3.46-8.06,2.3-2.3,4.99-3.46,8.06-3.46h.58ZM1135.28,172.8c3.07,0,5.76,1.15,8.06,3.46,2.3,2.3,3.46,5,3.46,8.06v.58c0,3.07-1.15,5.76-3.46,8.06-2.3,2.3-5,3.46-8.06,3.46h-.58c-3.07,0-5.76-1.15-8.06-3.46-2.3-2.3-3.46-4.99-3.46-8.06v-.58c0-3.07,1.15-5.76,3.46-8.06,2.3-2.3,4.99-3.46,8.06-3.46h.58ZM1164.08,86.4c3.07,0,5.76,1.15,8.06,3.46,2.3,2.3,3.46,4.99,3.46,8.06v.58c0,3.07-1.15,5.76-3.46,8.06-2.3,2.3-5,3.46-8.06,3.46h-.58c-3.07,0-5.76-1.15-8.06-3.46-2.3-2.3-3.46-4.99-3.46-8.06v-.58c0-3.07,1.15-5.76,3.46-8.06,2.3-2.3,4.99-3.46,8.06-3.46h.58ZM1164.08,115.2c3.07,0,5.76,1.15,8.06,3.46,2.3,2.3,3.46,5,3.46,8.06v.58c0,3.07-1.15,5.76-3.46,8.06-2.3,2.3-5,3.46-8.06,3.46h-.58c-3.07,0-5.76-1.15-8.06-3.46-2.3-2.3-3.46-4.99-3.46-8.06v-.58c0-3.07,1.15-5.76,3.46-8.06,2.3-2.3,4.99-3.46,8.06-3.46h.58ZM1164.08,144c3.07,0,5.76,1.15,8.06,3.46,2.3,2.3,3.46,4.99,3.46,8.06v.58c0,3.07-1.15,5.76-3.46,8.06s-5,3.46-8.06,3.46h-.58c-3.07,0-5.76-1.15-8.06-3.46s-3.46-4.99-3.46-8.06v-.58c0-3.07,1.15-5.76,3.46-8.06,2.3-2.3,4.99-3.46,8.06-3.46h.58Z"/></g></svg>