<?xml version="1.0" encoding="UTF-8"?><svg id="Layer_2" xmlns="http://www.w3.org/2000/svg" xmlns:xlink="http://www.w3.org/1999/xlink" viewBox="0 0 465.84 434.02"><defs><style>.cls-1{fill:url(#linear-gradient-2);}.cls-2{fill:#fff;}.cls-3{fill:url(#linear-gradient-4);}.cls-4{fill:url(#linear-gradient-10);}.cls-4,.cls-5{stroke:#fff;stroke-miterlimit:10;}.cls-6{fill:url(#linear-gradient-3);}.cls-7{fill:url(#linear-gradient-5);}.cls-8{fill:url(#linear-gradient-8);}.cls-9{fill:url(#linear-gradient-7);}.cls-10{fill:url(#linear-gradient-9);}.cls-11{fill:url(#linear-gradient-6);}.cls-5{fill:url(#linear-gradient-11);}.cls-12{fill:url(#linear-gradient);}</style><linearGradient id="linear-gradient" x1="378.85" y1="169.56" x2="442.51" y2="169.56" gradientUnits="userSpaceOnUse"><stop offset="0" stop-color="#003262"/><stop offset="1" stop-color="#22b573"/></linearGradient><linearGradient id="linear-gradient-2" x1="312.95" y1="69.56" x2="376.6" y2="69.56" xlink:href="#linear-gradient"/><linearGradient id="linear-gradient-3" x1="23.71" y1="169.67" x2="87.37" y2="169.67" xlink:href="#linear-gradient"/><linearGradient id="linear-gradient-4" x1="89.58" y1="69.48" x2="153.24" y2="69.48" xlink:href="#linear-gradient"/><linearGradient id="linear-gradient-5" x1="201.44" y1="13.55" x2="265.1" y2="13.55" xlink:href="#linear-gradient"/><linearGradient id="linear-gradient-6" x1="232.92" y1="434.02" x2="232.92" y2="157.14" xlink:href="#linear-gradient"/><linearGradient id="linear-gradient-7" x1="232.92" y1="127.31" x2="232.92" y2="0" xlink:href="#linear-gradient"/><linearGradient id="linear-gradient-8" x1="121.41" y1="184" x2="121.41" y2="55.92" xlink:href="#linear-gradient"/><linearGradient id="linear-gradient-9" x1="344.44" y1="184" x2="344.44" y2="56.01" xlink:href="#linear-gradient"/><linearGradient id="linear-gradient-10" x1="55.5" y1="283.2" x2="55.5" y2="156.12" xlink:href="#linear-gradient"/><linearGradient id="linear-gradient-11" x1="410.34" y1="283.2" x2="410.34" y2="156.01" xlink:href="#linear-gradient"/></defs><g id="Layer_1-2"><g id="paw_pads"><polygon class="cls-12" points="410.68 156.01 442.51 183.11 378.85 183.11 410.68 156.01"/><polygon class="cls-1" points="344.78 56.01 376.6 83.11 312.95 83.11 344.78 56.01"/><polygon class="cls-6" points="55.54 156.12 23.71 183.22 87.37 183.22 55.54 156.12"/><polygon class="cls-3" points="121.41 55.92 89.58 83.03 153.24 83.03 121.41 55.92"/><polygon class="cls-7" points="233.27 0 201.44 27.11 265.1 27.11 233.27 0"/><path class="cls-11" d="M308.25,434.02h-151.7c-61.36-9.12-88.15-65.43-59.22-120.46,18.9-35.95,42.16-75.24,63.37-110.03,18.19-29.84,40.28-48.59,77.73-46.17,33.11,2.14,50.76,21.07,66.77,47.47,21.04,34.69,44.36,73.73,63.08,109.53,9.55,18.27,14.22,33.24,10.79,54.25-5.7,34.93-35.42,62.62-70.81,65.41Z"/></g><path class="cls-9" d="M265.03,27.11h.07L233.27,0l-31.83,27.11h.17c-12.62,9.22-21.97,23.59-23.36,38.48-5.74,61.78,75,85.19,103.22,32.71,13.44-25,4.66-55.54-16.44-71.19Z"/><path class="cls-8" d="M153.15,83.03h.09l-31.83-27.11-31.83,27.11h.01c-37.19,26.08-28.37,97.03,27.2,100.8,62.75,4.26,76.22-73.26,36.35-100.8Z"/><path class="cls-10" d="M376.37,83.11h.23l-31.83-27.11-30.49,25.97c-41.8,26.56-28.81,106.18,34.76,101.86,55.51-3.77,64.37-74.57,27.32-100.72Z"/><path class="cls-4" d="M87.32,183.22h.04l-31.83-27.11-31.66,26.97C9.74,193.05.5,209.5.5,228.13c0,30.42,24.62,55.07,55,55.07s55-24.66,55-55.07c0-18.54-9.16-34.92-23.18-44.91Z"/><path class="cls-5" d="M442.01,183.11h.5l-31.83-27.11-30.97,26.37c-14.7,9.89-24.38,26.69-24.38,45.75,0,30.42,24.62,55.07,55,55.07s55-24.66,55-55.07c0-18.61-9.22-35.05-23.33-45.02Z"/><path class="cls-2" d="M410.34,200.82c-14.31,0-26.04,11.04-27.18,25.08l-106.51,3.06c-.85-4.15-2.27-8.23-4.28-12.12-.86-1.66-1.81-3.25-2.85-4.76l60.56-59.18c4.43,2.6,9.99,3.99,16.66,3.54,33.02-2.24,33.17-51.71,1.07-55.21-1.63-.18-4.93-.18-6.56,0-22.09,2.41-28.78,25.52-20.96,41.09l-60.69,59.31c-5.59-4.26-12.12-7.14-19.11-8.3v-94.79c6.54-1.77,12.56-6.12,16.51-13.46,8.9-16.56-1.84-38.02-20.54-40.26-1.65-.2-5.25-.18-6.92,0-11.68,1.25-22.68,12.32-23.77,24.03-1.47,15.78,8.44,26.52,20.31,29.67v94.71c-6.9,1.02-13.57,4.04-19.33,8.39l-61.19-59.4c7.75-15.57,1.04-38.6-21-41-1.63-.18-4.93-.18-6.56,0-32.1,3.5-31.94,52.96,1.07,55.21,6.71.46,12.3-.96,16.74-3.59l60.83,59.04c-3.56,4.86-6.17,10.32-7.46,16.01l-107.06-5.59c-2.66-12.29-13.58-21.49-26.65-21.49-15.06,0-27.27,12.23-27.27,27.31s12.21,27.31,27.27,27.31c12.08,0,22.31-7.86,25.9-18.75l107.05,5.59c1.33,13.62,8.27,24.1,17.29,30.92l-20.45,37.78c-3.27-1.15-6.83-1.98-10.71-2.41-2.77-.3-7.81-.3-10.58,0h0c-28.44,3.1-41.33,27.23-39.37,49.46,1.78,20.16,16.35,40.93,44.21,40.93,1.29,0,2.62-.04,3.97-.14,27.6-1.88,40.61-24.11,41.02-43.97.27-13.16-4.79-27.56-15.99-36.82l20.59-38.03c.58.2,1.17.39,1.75.57,4.21,1.27,8.75,1.96,13.38,1.96,4.88,0,9.86-.77,14.66-2.44l20.54,37.93c-11.19,9.26-16.25,23.65-15.99,36.82.4,19.86,13.41,42.1,41.01,43.97,1.35.09,2.67.14,3.97.14,27.85,0,42.43-20.77,44.21-40.93,1.97-22.23-10.92-46.36-39.37-49.46h0c-2.77-.3-7.81-.3-10.58,0-3.87.42-7.43,1.25-10.7,2.41l-20.49-37.86c4.42-3.57,8.39-8.23,11.57-14.15,2.64-4.9,4.27-10.2,4.91-15.63l108.59-3.13c4.46,9.01,13.73,15.21,24.45,15.21,15.06,0,27.27-12.23,27.27-27.31s-12.21-27.31-27.27-27.31ZM171.9,386.58c-44.04,2.99-47.52-61.32-6.54-65.78,1.94-.21,5.88-.21,7.82,0,38.25,4.17,38.06,63.11-1.28,65.78ZM293.42,320.8c1.94-.22,5.88-.22,7.82,0,40.98,4.46,37.49,68.77-6.54,65.78-39.34-2.67-39.53-61.62-1.28-65.78ZM261.63,252.73c-16.69,31.03-64.43,17.19-61.04-19.35,1.29-13.95,14.4-27.14,28.32-28.63,1.99-.21,6.28-.24,8.24,0,22.29,2.67,35.09,28.25,24.48,47.98Z"/></g></svg>