<svg xmlns="http://www.w3.org/2000/svg" viewBox="0 0 64 64" width="64" height="64">
  <!-- Solid light violet brain, faint black contour lines, filling max area -->
  <!-- Brain outer shape - solid fill -->
  <path d="M32 4
    C26 4 21 7 19 11
    C16 11 12 14 11 18
    C8 19 6 23 6 27
    C6 31 8 35 11 37
    C9 40 10 44 13 47
    C15 50 18 52 22 53
    C24 56 28 58 32 58
    C36 58 40 56 42 53
    C46 52 49 50 51 47
    C54 44 55 40 53 37
    C56 35 58 31 58 27
    C58 23 56 19 53 18
    C52 14 48 11 45 11
    C43 7 38 4 32 4Z"
    fill="#c4b5fd"
    stroke="#000000"
    stroke-opacity="0.2"
    stroke-width="1"
  />
  <!-- Central fissure -->
  <path d="M32 10 C32 14 31 20 32 28 C33 36 32 44 32 54"
    fill="none"
    stroke="#000000"
    stroke-opacity="0.15"
    stroke-width="1.2"
    stroke-linecap="round"
  />
  <!-- Left hemisphere folds -->
  <path d="M26 14 C22 16 18 20 16 25"
    fill="none" stroke="#000000" stroke-opacity="0.12" stroke-width="1" stroke-linecap="round"/>
  <path d="M24 20 C20 23 15 28 13 33"
    fill="none" stroke="#000000" stroke-opacity="0.12" stroke-width="1" stroke-linecap="round"/>
  <path d="M27 28 C23 31 18 35 15 39"
    fill="none" stroke="#000000" stroke-opacity="0.12" stroke-width="1" stroke-linecap="round"/>
  <path d="M26 36 C22 39 18 43 17 47"
    fill="none" stroke="#000000" stroke-opacity="0.12" stroke-width="1" stroke-linecap="round"/>
  <path d="M28 44 C25 47 22 50 22 53"
    fill="none" stroke="#000000" stroke-opacity="0.12" stroke-width="1" stroke-linecap="round"/>
  <!-- Right hemisphere folds -->
  <path d="M38 14 C42 16 46 20 48 25"
    fill="none" stroke="#000000" stroke-opacity="0.12" stroke-width="1" stroke-linecap="round"/>
  <path d="M40 20 C44 23 49 28 51 33"
    fill="none" stroke="#000000" stroke-opacity="0.12" stroke-width="1" stroke-linecap="round"/>
  <path d="M37 28 C41 31 46 35 49 39"
    fill="none" stroke="#000000" stroke-opacity="0.12" stroke-width="1" stroke-linecap="round"/>
  <path d="M38 36 C42 39 46 43 47 47"
    fill="none" stroke="#000000" stroke-opacity="0.12" stroke-width="1" stroke-linecap="round"/>
  <path d="M36 44 C39 47 42 50 42 53"
    fill="none" stroke="#000000" stroke-opacity="0.12" stroke-width="1" stroke-linecap="round"/>
  <!-- Brainstem -->
  <path d="M29 54 C29 57 30 60 32 60 C34 60 35 57 35 54"
    fill="#c4b5fd"
    stroke="#000000"
    stroke-opacity="0.2"
    stroke-width="1"
    stroke-linecap="round"
  />
</svg>
